<?xml version="1.0" encoding="UTF-8" standalone="no"?>
<svg
   id="svg3570"
   width="144px"
   version="1.1"
   height="144px"
   sodipodi:docname="library-music.svg"
   inkscape:version="1.2.2 (b0a8486541, 2022-12-01)"
   xmlns:inkscape="http://www.inkscape.org/namespaces/inkscape"
   xmlns:sodipodi="http://sodipodi.sourceforge.net/DTD/sodipodi-0.dtd"
   xmlns="http://www.w3.org/2000/svg"
   xmlns:svg="http://www.w3.org/2000/svg"
   xmlns:rdf="http://www.w3.org/1999/02/22-rdf-syntax-ns#"
   xmlns:cc="http://creativecommons.org/ns#"
   xmlns:dc="http://purl.org/dc/elements/1.1/">
  <sodipodi:namedview
     pagecolor="#ffffff"
     bordercolor="#666666"
     borderopacity="1"
     objecttolerance="10"
     gridtolerance="10"
     guidetolerance="10"
     inkscape:pageopacity="0"
     inkscape:pageshadow="2"
     inkscape:window-width="2560"
     inkscape:window-height="1381"
     id="namedview12"
     showgrid="false"
     inkscape:zoom="4"
     inkscape:cx="85.125"
     inkscape:cy="67.375"
     inkscape:window-x="0"
     inkscape:window-y="0"
     inkscape:window-maximized="1"
     inkscape:current-layer="svg3570"
     inkscape:showpageshadow="2"
     inkscape:pagecheckerboard="0"
     inkscape:deskcolor="#d1d1d1" />
  <metadata
     id="metadata3574">
    <rdf:RDF>
      <cc:Work
         rdf:about="">
        <dc:format>image/svg+xml</dc:format>
        <dc:type
           rdf:resource="http://purl.org/dc/dcmitype/StillImage" />
      </cc:Work>
    </rdf:RDF>
  </metadata>
  <defs
     id="defs2" />
  <rect
     style="opacity:1;fill:#ffff00;fill-opacity:1"
     id="rect13"
     width="135"
     height="96"
     x="4.5"
     y="33" />
  <path
     style="opacity:1;fill:#ffff00;fill-opacity:1"
     d="m 16.5,15 h 39 l 12,12 H 7.5000005 Z"
     id="rect15"
     inkscape:connector-curvature="0"
     sodipodi:nodetypes="ccccc" />
  <path
     style="fill:#008000"
     d="M 54 45 L 54 48 L 54 51 L 54 54 L 51 54 L 48 54 L 45 54 L 42 54 L 39 54 L 36 54 L 33 54 L 30 54 L 27 54 L 24 54 L 21 54 L 18 54 L 15 54 L 12 54 L 12 57 L 12 60 L 12 63 L 12 66 L 12 69 L 12 72 L 12 75 L 12 78 L 12 81 L 12 84 L 15 84 L 18 84 L 21 84 L 24 84 L 27 84 L 27 87 L 24 87 L 24 90 L 24 93 L 27 93 L 30 93 L 33 93 L 33 90 L 36 90 L 36 87 L 36 84 L 39 84 L 42 84 L 45 84 L 48 84 L 51 84 L 54 84 L 57 84 L 60 84 L 63 84 L 66 84 L 69 84 L 72 84 L 75 84 L 78 84 L 81 84 L 84 84 L 87 84 L 90 84 L 90 87 L 87 87 L 87 90 L 87 93 L 90 93 L 93 93 L 96 93 L 96 90 L 99 90 L 99 87 L 99 84 L 102 84 L 105 84 L 108 84 L 111 84 L 114 84 L 117 84 L 120 84 L 120 81 L 120 78 L 120 75 L 120 72 L 120 69 L 120 66 L 120 63 L 120 60 L 120 57 L 120 54 L 117 54 L 114 54 L 111 54 L 108 54 L 105 54 L 102 54 L 99 54 L 96 54 L 93 54 L 90 54 L 87 54 L 84 54 L 81 54 L 78 54 L 78 51 L 78 48 L 78 45 L 75 45 L 72 45 L 69 45 L 66 45 L 63 45 L 60 45 L 57 45 L 54 45 z M 57 51 L 60 51 L 63 51 L 66 51 L 69 51 L 72 51 L 75 51 L 75 54 L 72 54 L 69 54 L 66 54 L 63 54 L 60 54 L 57 54 L 57 51 z M 15 57 L 18 57 L 21 57 L 24 57 L 27 57 L 30 57 L 33 57 L 33 60 L 33 63 L 30 63 L 27 63 L 24 63 L 21 63 L 18 63 L 15 63 L 15 60 L 15 57 z M 36 57 L 39 57 L 42 57 L 45 57 L 48 57 L 51 57 L 54 57 L 54 60 L 54 63 L 51 63 L 48 63 L 45 63 L 42 63 L 39 63 L 36 63 L 36 60 L 36 57 z M 57 57 L 60 57 L 63 57 L 66 57 L 69 57 L 72 57 L 75 57 L 75 60 L 75 63 L 72 63 L 69 63 L 66 63 L 63 63 L 60 63 L 57 63 L 57 60 L 57 57 z M 78 57 L 81 57 L 84 57 L 87 57 L 90 57 L 93 57 L 96 57 L 96 60 L 96 63 L 93 63 L 90 63 L 87 63 L 84 63 L 81 63 L 78 63 L 78 60 L 78 57 z M 99 57 L 102 57 L 105 57 L 108 57 L 111 57 L 114 57 L 117 57 L 117 60 L 117 63 L 114 63 L 111 63 L 108 63 L 105 63 L 102 63 L 99 63 L 99 60 L 99 57 z M 15 66 L 18 66 L 21 66 L 24 66 L 27 66 L 30 66 L 33 66 L 33 69 L 33 72 L 30 72 L 27 72 L 24 72 L 21 72 L 18 72 L 15 72 L 15 69 L 15 66 z M 36 66 L 39 66 L 42 66 L 45 66 L 48 66 L 51 66 L 54 66 L 54 69 L 54 72 L 51 72 L 48 72 L 45 72 L 42 72 L 39 72 L 36 72 L 36 69 L 36 66 z M 57 66 L 60 66 L 63 66 L 66 66 L 69 66 L 72 66 L 75 66 L 75 69 L 75 72 L 72 72 L 69 72 L 66 72 L 63 72 L 60 72 L 57 72 L 57 69 L 57 66 z M 78 66 L 81 66 L 84 66 L 87 66 L 90 66 L 93 66 L 96 66 L 96 69 L 96 72 L 93 72 L 90 72 L 87 72 L 84 72 L 81 72 L 78 72 L 78 69 L 78 66 z M 99 66 L 102 66 L 105 66 L 108 66 L 111 66 L 114 66 L 117 66 L 117 69 L 117 72 L 114 72 L 111 72 L 108 72 L 105 72 L 102 72 L 99 72 L 99 69 L 99 66 z M 15 75 L 18 75 L 21 75 L 24 75 L 27 75 L 30 75 L 33 75 L 33 78 L 33 81 L 30 81 L 27 81 L 24 81 L 21 81 L 18 81 L 15 81 L 15 78 L 15 75 z M 36 75 L 39 75 L 42 75 L 45 75 L 45 78 L 45 81 L 42 81 L 39 81 L 36 81 L 36 78 L 36 75 z M 57 75 L 60 75 L 63 75 L 66 75 L 66 78 L 66 81 L 63 81 L 60 81 L 57 81 L 54 81 L 54 78 L 57 78 L 57 75 z M 78 75 L 81 75 L 84 75 L 87 75 L 90 75 L 93 75 L 96 75 L 96 78 L 96 81 L 93 81 L 90 81 L 87 81 L 84 81 L 81 81 L 78 81 L 75 81 L 75 78 L 78 78 L 78 75 z M 99 75 L 102 75 L 105 75 L 108 75 L 111 75 L 114 75 L 117 75 L 117 78 L 117 81 L 114 81 L 111 81 L 108 81 L 105 81 L 102 81 L 99 81 L 99 78 L 99 75 z "
     id="rect2292" />
  <path
     style="fill:#ffffff"
     d="M 18 12 L 18 15 L 21 15 L 24 15 L 27 15 L 30 15 L 33 15 L 36 15 L 39 15 L 42 15 L 45 15 L 48 15 L 51 15 L 54 15 L 57 15 L 57 12 L 54 12 L 51 12 L 48 12 L 45 12 L 42 12 L 39 12 L 36 12 L 33 12 L 30 12 L 27 12 L 24 12 L 21 12 L 18 12 z M 18 15 L 15 15 L 15 18 L 18 18 L 18 15 z M 15 18 L 12 18 L 12 21 L 15 21 L 15 18 z M 12 21 L 9 21 L 9 24 L 12 24 L 12 21 z M 9 24 L 6 24 L 6 27 L 9 27 L 9 24 z M 3 30 L 3 33 L 3 36 L 3 39 L 3 42 L 3 45 L 3 48 L 3 51 L 3 54 L 3 57 L 3 60 L 3 63 L 3 66 L 3 69 L 3 72 L 3 75 L 3 78 L 3 81 L 3 84 L 3 87 L 3 90 L 3 93 L 3 96 L 3 99 L 3 102 L 3 105 L 3 108 L 3 111 L 3 114 L 3 117 L 3 120 L 3 123 L 3 126 L 6 126 L 6 123 L 6 120 L 6 117 L 6 114 L 6 111 L 6 108 L 6 105 L 6 102 L 6 99 L 6 96 L 6 93 L 6 90 L 6 87 L 6 84 L 6 81 L 6 78 L 6 75 L 6 72 L 6 69 L 6 66 L 6 63 L 6 60 L 6 57 L 6 54 L 6 51 L 6 48 L 6 45 L 6 42 L 6 39 L 6 36 L 6 33 L 9 33 L 12 33 L 15 33 L 18 33 L 21 33 L 24 33 L 27 33 L 30 33 L 33 33 L 36 33 L 39 33 L 42 33 L 45 33 L 48 33 L 51 33 L 54 33 L 57 33 L 60 33 L 63 33 L 66 33 L 69 33 L 72 33 L 75 33 L 78 33 L 81 33 L 84 33 L 87 33 L 90 33 L 93 33 L 96 33 L 99 33 L 102 33 L 105 33 L 108 33 L 111 33 L 114 33 L 117 33 L 120 33 L 123 33 L 126 33 L 129 33 L 132 33 L 135 33 L 138 33 L 138 30 L 135 30 L 132 30 L 129 30 L 126 30 L 123 30 L 120 30 L 117 30 L 114 30 L 111 30 L 108 30 L 105 30 L 102 30 L 99 30 L 96 30 L 93 30 L 90 30 L 87 30 L 84 30 L 81 30 L 78 30 L 75 30 L 72 30 L 69 30 L 66 30 L 63 30 L 60 30 L 57 30 L 54 30 L 51 30 L 48 30 L 45 30 L 42 30 L 39 30 L 36 30 L 33 30 L 30 30 L 27 30 L 24 30 L 21 30 L 18 30 L 15 30 L 12 30 L 9 30 L 6 30 L 3 30 z "
     id="rect3288" />
  <path
     style="fill:#ffff00"
     d="M 18 15 L 18 18 L 21 18 L 21 15 L 18 15 z M 21 18 L 21 21 L 24 21 L 24 18 L 21 18 z M 24 18 L 27 18 L 27 15 L 24 15 L 24 18 z M 27 18 L 27 21 L 30 21 L 30 18 L 27 18 z M 30 18 L 33 18 L 33 15 L 30 15 L 30 18 z M 33 18 L 33 21 L 36 21 L 36 18 L 33 18 z M 36 18 L 39 18 L 39 15 L 36 15 L 36 18 z M 39 18 L 39 21 L 42 21 L 42 18 L 39 18 z M 42 18 L 45 18 L 45 15 L 42 15 L 42 18 z M 45 18 L 45 21 L 48 21 L 48 18 L 45 18 z M 48 18 L 51 18 L 51 15 L 48 15 L 48 18 z M 51 18 L 51 21 L 54 21 L 54 18 L 51 18 z M 54 18 L 57 18 L 57 15 L 54 15 L 54 18 z M 57 18 L 57 21 L 60 21 L 60 18 L 57 18 z M 60 21 L 60 24 L 63 24 L 63 21 L 60 21 z M 63 24 L 63 27 L 66 27 L 66 24 L 63 24 z M 60 24 L 57 24 L 57 27 L 60 27 L 60 24 z M 57 24 L 57 21 L 54 21 L 54 24 L 57 24 z M 54 24 L 51 24 L 51 27 L 54 27 L 54 24 z M 51 24 L 51 21 L 48 21 L 48 24 L 51 24 z M 48 24 L 45 24 L 45 27 L 48 27 L 48 24 z M 45 24 L 45 21 L 42 21 L 42 24 L 45 24 z M 42 24 L 39 24 L 39 27 L 42 27 L 42 24 z M 39 24 L 39 21 L 36 21 L 36 24 L 39 24 z M 36 24 L 33 24 L 33 27 L 36 27 L 36 24 z M 33 24 L 33 21 L 30 21 L 30 24 L 33 24 z M 30 24 L 27 24 L 27 27 L 30 27 L 30 24 z M 27 24 L 27 21 L 24 21 L 24 24 L 27 24 z M 24 24 L 21 24 L 21 27 L 24 27 L 24 24 z M 21 24 L 21 21 L 18 21 L 18 24 L 21 24 z M 18 24 L 15 24 L 15 27 L 18 27 L 18 24 z M 15 24 L 15 21 L 12 21 L 12 24 L 15 24 z M 12 24 L 9 24 L 9 27 L 12 27 L 12 24 z M 15 21 L 18 21 L 18 18 L 15 18 L 15 21 z M 6 33 L 6 36 L 9 36 L 9 33 L 6 33 z M 9 36 L 9 39 L 12 39 L 12 36 L 9 36 z M 12 36 L 15 36 L 15 33 L 12 33 L 12 36 z M 15 36 L 15 39 L 18 39 L 18 36 L 15 36 z M 18 36 L 21 36 L 21 33 L 18 33 L 18 36 z M 21 36 L 21 39 L 24 39 L 24 36 L 21 36 z M 24 36 L 27 36 L 27 33 L 24 33 L 24 36 z M 27 36 L 27 39 L 30 39 L 30 36 L 27 36 z M 30 36 L 33 36 L 33 33 L 30 33 L 30 36 z M 33 36 L 33 39 L 36 39 L 36 36 L 33 36 z M 36 36 L 39 36 L 39 33 L 36 33 L 36 36 z M 39 36 L 39 39 L 42 39 L 42 36 L 39 36 z M 42 36 L 45 36 L 45 33 L 42 33 L 42 36 z M 45 36 L 45 39 L 48 39 L 48 36 L 45 36 z M 48 36 L 51 36 L 51 33 L 48 33 L 48 36 z M 51 36 L 51 39 L 54 39 L 54 36 L 51 36 z M 54 36 L 57 36 L 57 33 L 54 33 L 54 36 z M 57 36 L 57 39 L 60 39 L 60 36 L 57 36 z M 60 36 L 63 36 L 63 33 L 60 33 L 60 36 z M 63 36 L 63 39 L 66 39 L 66 36 L 63 36 z M 66 36 L 69 36 L 69 33 L 66 33 L 66 36 z M 69 36 L 69 39 L 72 39 L 72 36 L 69 36 z M 72 36 L 75 36 L 75 33 L 72 33 L 72 36 z M 75 36 L 75 39 L 78 39 L 78 36 L 75 36 z M 78 36 L 81 36 L 81 33 L 78 33 L 78 36 z M 81 36 L 81 39 L 84 39 L 84 36 L 81 36 z M 84 36 L 87 36 L 87 33 L 84 33 L 84 36 z M 87 36 L 87 39 L 90 39 L 90 36 L 87 36 z M 90 36 L 93 36 L 93 33 L 90 33 L 90 36 z M 93 36 L 93 39 L 96 39 L 96 36 L 93 36 z M 96 36 L 99 36 L 99 33 L 96 33 L 96 36 z M 99 36 L 99 39 L 102 39 L 102 36 L 99 36 z M 102 36 L 105 36 L 105 33 L 102 33 L 102 36 z M 105 36 L 105 39 L 108 39 L 108 36 L 105 36 z M 108 36 L 111 36 L 111 33 L 108 33 L 108 36 z M 111 36 L 111 39 L 114 39 L 114 36 L 111 36 z M 114 36 L 117 36 L 117 33 L 114 33 L 114 36 z M 117 36 L 117 39 L 120 39 L 120 36 L 117 36 z M 120 36 L 123 36 L 123 33 L 120 33 L 120 36 z M 123 36 L 123 39 L 126 39 L 126 36 L 123 36 z M 126 36 L 129 36 L 129 33 L 126 33 L 126 36 z M 129 36 L 129 39 L 132 39 L 132 36 L 129 36 z M 132 36 L 135 36 L 135 33 L 132 33 L 132 36 z M 135 36 L 135 39 L 138 39 L 138 36 L 135 36 z M 135 39 L 132 39 L 132 42 L 135 42 L 135 39 z M 135 42 L 135 45 L 138 45 L 138 42 L 135 42 z M 135 45 L 132 45 L 132 48 L 135 48 L 135 45 z M 135 48 L 135 51 L 138 51 L 138 48 L 135 48 z M 135 51 L 132 51 L 132 54 L 135 54 L 135 51 z M 135 54 L 135 57 L 138 57 L 138 54 L 135 54 z M 135 57 L 132 57 L 132 60 L 135 60 L 135 57 z M 135 60 L 135 63 L 138 63 L 138 60 L 135 60 z M 135 63 L 132 63 L 132 66 L 135 66 L 135 63 z M 135 66 L 135 69 L 138 69 L 138 66 L 135 66 z M 135 69 L 132 69 L 132 72 L 135 72 L 135 69 z M 135 72 L 135 75 L 138 75 L 138 72 L 135 72 z M 135 75 L 132 75 L 132 78 L 135 78 L 135 75 z M 135 78 L 135 81 L 138 81 L 138 78 L 135 78 z M 135 81 L 132 81 L 132 84 L 135 84 L 135 81 z M 135 84 L 135 87 L 138 87 L 138 84 L 135 84 z M 135 87 L 132 87 L 132 90 L 135 90 L 135 87 z M 135 90 L 135 93 L 138 93 L 138 90 L 135 90 z M 135 93 L 132 93 L 132 96 L 135 96 L 135 93 z M 135 96 L 135 99 L 138 99 L 138 96 L 135 96 z M 135 99 L 132 99 L 132 102 L 135 102 L 135 99 z M 135 102 L 135 105 L 138 105 L 138 102 L 135 102 z M 135 105 L 132 105 L 132 108 L 135 108 L 135 105 z M 135 108 L 135 111 L 138 111 L 138 108 L 135 108 z M 135 111 L 132 111 L 132 114 L 135 114 L 135 111 z M 135 114 L 135 117 L 138 117 L 138 114 L 135 114 z M 135 117 L 132 117 L 132 120 L 135 120 L 135 117 z M 135 120 L 135 123 L 138 123 L 138 120 L 135 120 z M 135 123 L 132 123 L 132 126 L 135 126 L 135 123 z M 132 123 L 132 120 L 129 120 L 129 123 L 132 123 z M 129 123 L 126 123 L 126 126 L 129 126 L 129 123 z M 126 123 L 126 120 L 123 120 L 123 123 L 126 123 z M 123 123 L 120 123 L 120 126 L 123 126 L 123 123 z M 120 123 L 120 120 L 117 120 L 117 123 L 120 123 z M 117 123 L 114 123 L 114 126 L 117 126 L 117 123 z M 114 123 L 114 120 L 111 120 L 111 123 L 114 123 z M 111 123 L 108 123 L 108 126 L 111 126 L 111 123 z M 108 123 L 108 120 L 105 120 L 105 123 L 108 123 z M 105 123 L 102 123 L 102 126 L 105 126 L 105 123 z M 102 123 L 102 120 L 99 120 L 99 123 L 102 123 z M 99 123 L 96 123 L 96 126 L 99 126 L 99 123 z M 96 123 L 96 120 L 93 120 L 93 123 L 96 123 z M 93 123 L 90 123 L 90 126 L 93 126 L 93 123 z M 90 123 L 90 120 L 87 120 L 87 123 L 90 123 z M 87 123 L 84 123 L 84 126 L 87 126 L 87 123 z M 84 123 L 84 120 L 81 120 L 81 123 L 84 123 z M 81 123 L 78 123 L 78 126 L 81 126 L 81 123 z M 78 123 L 78 120 L 75 120 L 75 123 L 78 123 z M 75 123 L 72 123 L 72 126 L 75 126 L 75 123 z M 72 123 L 72 120 L 69 120 L 69 123 L 72 123 z M 69 123 L 66 123 L 66 126 L 69 126 L 69 123 z M 66 123 L 66 120 L 63 120 L 63 123 L 66 123 z M 63 123 L 60 123 L 60 126 L 63 126 L 63 123 z M 60 123 L 60 120 L 57 120 L 57 123 L 60 123 z M 57 123 L 54 123 L 54 126 L 57 126 L 57 123 z M 54 123 L 54 120 L 51 120 L 51 123 L 54 123 z M 51 123 L 48 123 L 48 126 L 51 126 L 51 123 z M 48 123 L 48 120 L 45 120 L 45 123 L 48 123 z M 45 123 L 42 123 L 42 126 L 45 126 L 45 123 z M 42 123 L 42 120 L 39 120 L 39 123 L 42 123 z M 39 123 L 36 123 L 36 126 L 39 126 L 39 123 z M 36 123 L 36 120 L 33 120 L 33 123 L 36 123 z M 33 123 L 30 123 L 30 126 L 33 126 L 33 123 z M 30 123 L 30 120 L 27 120 L 27 123 L 30 123 z M 27 123 L 24 123 L 24 126 L 27 126 L 27 123 z M 24 123 L 24 120 L 21 120 L 21 123 L 24 123 z M 21 123 L 18 123 L 18 126 L 21 126 L 21 123 z M 18 123 L 18 120 L 15 120 L 15 123 L 18 123 z M 15 123 L 12 123 L 12 126 L 15 126 L 15 123 z M 12 123 L 12 120 L 9 120 L 9 123 L 12 123 z M 9 123 L 6 123 L 6 126 L 9 126 L 9 123 z M 9 120 L 9 117 L 6 117 L 6 120 L 9 120 z M 9 117 L 12 117 L 12 114 L 9 114 L 9 117 z M 9 114 L 9 111 L 6 111 L 6 114 L 9 114 z M 9 111 L 12 111 L 12 108 L 9 108 L 9 111 z M 9 108 L 9 105 L 6 105 L 6 108 L 9 108 z M 9 105 L 12 105 L 12 102 L 9 102 L 9 105 z M 9 102 L 9 99 L 6 99 L 6 102 L 9 102 z M 9 99 L 12 99 L 12 96 L 9 96 L 9 99 z M 9 96 L 9 93 L 6 93 L 6 96 L 9 96 z M 9 93 L 12 93 L 12 90 L 9 90 L 9 93 z M 9 90 L 9 87 L 6 87 L 6 90 L 9 90 z M 9 87 L 12 87 L 12 84 L 9 84 L 9 87 z M 9 84 L 9 81 L 6 81 L 6 84 L 9 84 z M 9 81 L 12 81 L 12 78 L 9 78 L 9 81 z M 9 78 L 9 75 L 6 75 L 6 78 L 9 78 z M 9 75 L 12 75 L 12 72 L 9 72 L 9 75 z M 9 72 L 9 69 L 6 69 L 6 72 L 9 72 z M 9 69 L 12 69 L 12 66 L 9 66 L 9 69 z M 9 66 L 9 63 L 6 63 L 6 66 L 9 66 z M 9 63 L 12 63 L 12 60 L 9 60 L 9 63 z M 9 60 L 9 57 L 6 57 L 6 60 L 9 60 z M 9 57 L 12 57 L 12 54 L 9 54 L 9 57 z M 9 54 L 9 51 L 6 51 L 6 54 L 9 54 z M 9 51 L 12 51 L 12 48 L 9 48 L 9 51 z M 9 48 L 9 45 L 6 45 L 6 48 L 9 48 z M 9 45 L 12 45 L 12 42 L 9 42 L 9 45 z M 9 42 L 9 39 L 6 39 L 6 42 L 9 42 z M 12 42 L 15 42 L 15 39 L 12 39 L 12 42 z M 15 42 L 15 45 L 18 45 L 18 42 L 15 42 z M 18 42 L 21 42 L 21 39 L 18 39 L 18 42 z M 21 42 L 21 45 L 24 45 L 24 42 L 21 42 z M 24 42 L 27 42 L 27 39 L 24 39 L 24 42 z M 27 42 L 27 45 L 30 45 L 30 42 L 27 42 z M 30 42 L 33 42 L 33 39 L 30 39 L 30 42 z M 33 42 L 33 45 L 36 45 L 36 42 L 33 42 z M 36 42 L 39 42 L 39 39 L 36 39 L 36 42 z M 39 42 L 39 45 L 42 45 L 42 42 L 39 42 z M 42 42 L 45 42 L 45 39 L 42 39 L 42 42 z M 45 42 L 45 45 L 48 45 L 48 42 L 45 42 z M 48 42 L 51 42 L 51 39 L 48 39 L 48 42 z M 51 42 L 51 45 L 54 45 L 54 42 L 51 42 z M 54 42 L 57 42 L 57 39 L 54 39 L 54 42 z M 57 42 L 57 45 L 60 45 L 60 42 L 57 42 z M 60 42 L 63 42 L 63 39 L 60 39 L 60 42 z M 63 42 L 63 45 L 66 45 L 66 42 L 63 42 z M 66 42 L 69 42 L 69 39 L 66 39 L 66 42 z M 69 42 L 69 45 L 72 45 L 72 42 L 69 42 z M 72 42 L 75 42 L 75 39 L 72 39 L 72 42 z M 75 42 L 75 45 L 78 45 L 78 42 L 75 42 z M 78 42 L 81 42 L 81 39 L 78 39 L 78 42 z M 81 42 L 81 45 L 84 45 L 84 42 L 81 42 z M 84 42 L 87 42 L 87 39 L 84 39 L 84 42 z M 87 42 L 87 45 L 90 45 L 90 42 L 87 42 z M 90 42 L 93 42 L 93 39 L 90 39 L 90 42 z M 93 42 L 93 45 L 96 45 L 96 42 L 93 42 z M 96 42 L 99 42 L 99 39 L 96 39 L 96 42 z M 99 42 L 99 45 L 102 45 L 102 42 L 99 42 z M 102 42 L 105 42 L 105 39 L 102 39 L 102 42 z M 105 42 L 105 45 L 108 45 L 108 42 L 105 42 z M 108 42 L 111 42 L 111 39 L 108 39 L 108 42 z M 111 42 L 111 45 L 114 45 L 114 42 L 111 42 z M 114 42 L 117 42 L 117 39 L 114 39 L 114 42 z M 117 42 L 117 45 L 120 45 L 120 42 L 117 42 z M 120 42 L 123 42 L 123 39 L 120 39 L 120 42 z M 123 42 L 123 45 L 126 45 L 126 42 L 123 42 z M 126 42 L 129 42 L 129 39 L 126 39 L 126 42 z M 129 42 L 129 45 L 132 45 L 132 42 L 129 42 z M 129 45 L 126 45 L 126 48 L 129 48 L 129 45 z M 129 48 L 129 51 L 132 51 L 132 48 L 129 48 z M 129 51 L 126 51 L 126 54 L 129 54 L 129 51 z M 129 54 L 129 57 L 132 57 L 132 54 L 129 54 z M 129 57 L 126 57 L 126 60 L 129 60 L 129 57 z M 129 60 L 129 63 L 132 63 L 132 60 L 129 60 z M 126 60 L 123 60 L 123 63 L 126 63 L 126 60 z M 123 60 L 123 57 L 120 57 L 120 60 L 123 60 z M 123 57 L 126 57 L 126 54 L 123 54 L 123 57 z M 123 54 L 123 51 L 120 51 L 120 54 L 123 54 z M 120 51 L 120 48 L 117 48 L 117 51 L 120 51 z M 117 51 L 114 51 L 114 54 L 117 54 L 117 51 z M 114 51 L 114 48 L 111 48 L 111 51 L 114 51 z M 111 51 L 108 51 L 108 54 L 111 54 L 111 51 z M 108 51 L 108 48 L 105 48 L 105 51 L 108 51 z M 105 51 L 102 51 L 102 54 L 105 54 L 105 51 z M 102 51 L 102 48 L 99 48 L 99 51 L 102 51 z M 99 51 L 96 51 L 96 54 L 99 54 L 99 51 z M 96 51 L 96 48 L 93 48 L 93 51 L 96 51 z M 93 51 L 90 51 L 90 54 L 93 54 L 93 51 z M 90 51 L 90 48 L 87 48 L 87 51 L 90 51 z M 87 48 L 87 45 L 84 45 L 84 48 L 87 48 z M 84 48 L 81 48 L 81 51 L 84 51 L 84 48 z M 81 48 L 81 45 L 78 45 L 78 48 L 81 48 z M 90 48 L 93 48 L 93 45 L 90 45 L 90 48 z M 96 48 L 99 48 L 99 45 L 96 45 L 96 48 z M 102 48 L 105 48 L 105 45 L 102 45 L 102 48 z M 108 48 L 111 48 L 111 45 L 108 45 L 108 48 z M 114 48 L 117 48 L 117 45 L 114 45 L 114 48 z M 120 48 L 123 48 L 123 45 L 120 45 L 120 48 z M 123 48 L 123 51 L 126 51 L 126 48 L 123 48 z M 51 45 L 48 45 L 48 48 L 51 48 L 51 45 z M 51 48 L 51 51 L 54 51 L 54 48 L 51 48 z M 51 51 L 48 51 L 48 54 L 51 54 L 51 51 z M 48 51 L 48 48 L 45 48 L 45 51 L 48 51 z M 45 51 L 42 51 L 42 54 L 45 54 L 45 51 z M 42 51 L 42 48 L 39 48 L 39 51 L 42 51 z M 39 51 L 36 51 L 36 54 L 39 54 L 39 51 z M 36 51 L 36 48 L 33 48 L 33 51 L 36 51 z M 33 51 L 30 51 L 30 54 L 33 54 L 33 51 z M 30 51 L 30 48 L 27 48 L 27 51 L 30 51 z M 27 51 L 24 51 L 24 54 L 27 54 L 27 51 z M 24 51 L 24 48 L 21 48 L 21 51 L 24 51 z M 21 51 L 18 51 L 18 54 L 21 54 L 21 51 z M 18 51 L 18 48 L 15 48 L 15 51 L 18 51 z M 15 51 L 12 51 L 12 54 L 15 54 L 15 51 z M 15 48 L 15 45 L 12 45 L 12 48 L 15 48 z M 18 48 L 21 48 L 21 45 L 18 45 L 18 48 z M 24 48 L 27 48 L 27 45 L 24 45 L 24 48 z M 30 48 L 33 48 L 33 45 L 30 45 L 30 48 z M 36 48 L 39 48 L 39 45 L 36 45 L 36 48 z M 42 48 L 45 48 L 45 45 L 42 45 L 42 48 z M 12 87 L 12 90 L 15 90 L 15 87 L 12 87 z M 15 87 L 18 87 L 18 84 L 15 84 L 15 87 z M 18 87 L 18 90 L 21 90 L 21 87 L 18 87 z M 21 87 L 24 87 L 24 84 L 21 84 L 21 87 z M 21 90 L 21 93 L 24 93 L 24 90 L 21 90 z M 24 93 L 24 96 L 27 96 L 27 93 L 24 93 z M 27 96 L 27 99 L 30 99 L 30 96 L 27 96 z M 30 96 L 33 96 L 33 93 L 30 93 L 30 96 z M 30 99 L 30 102 L 33 102 L 33 99 L 30 99 z M 33 102 L 33 105 L 36 105 L 36 102 L 33 102 z M 36 102 L 39 102 L 39 99 L 36 99 L 36 102 z M 39 102 L 39 105 L 42 105 L 42 102 L 39 102 z M 42 102 L 45 102 L 45 99 L 42 99 L 42 102 z M 45 99 L 48 99 L 48 96 L 45 96 L 45 99 z M 48 96 L 51 96 L 51 93 L 48 93 L 48 96 z M 51 96 L 51 99 L 54 99 L 54 96 L 51 96 z M 54 96 L 57 96 L 57 93 L 54 93 L 54 96 z M 57 96 L 57 99 L 60 99 L 60 96 L 57 96 z M 60 96 L 63 96 L 63 93 L 60 93 L 60 96 z M 63 96 L 63 99 L 66 99 L 66 96 L 63 96 z M 66 96 L 69 96 L 69 93 L 66 93 L 66 96 z M 69 96 L 69 99 L 72 99 L 72 96 L 69 96 z M 72 96 L 75 96 L 75 93 L 72 93 L 72 96 z M 75 96 L 75 99 L 78 99 L 78 96 L 75 96 z M 78 96 L 81 96 L 81 93 L 78 93 L 78 96 z M 81 96 L 81 99 L 84 99 L 84 96 L 81 96 z M 84 96 L 87 96 L 87 93 L 84 93 L 84 96 z M 87 96 L 87 99 L 90 99 L 90 96 L 87 96 z M 90 96 L 93 96 L 93 93 L 90 93 L 90 96 z M 93 96 L 93 99 L 96 99 L 96 96 L 93 96 z M 96 99 L 96 102 L 99 102 L 99 99 L 96 99 z M 99 102 L 99 105 L 102 105 L 102 102 L 99 102 z M 102 102 L 105 102 L 105 99 L 102 99 L 102 102 z M 105 99 L 108 99 L 108 96 L 105 96 L 105 99 z M 108 96 L 111 96 L 111 93 L 108 93 L 108 96 z M 111 96 L 111 99 L 114 99 L 114 96 L 111 96 z M 114 96 L 117 96 L 117 93 L 114 93 L 114 96 z M 117 96 L 117 99 L 120 99 L 120 96 L 117 96 z M 120 96 L 123 96 L 123 93 L 120 93 L 120 96 z M 123 96 L 123 99 L 126 99 L 126 96 L 123 96 z M 126 96 L 129 96 L 129 93 L 126 93 L 126 96 z M 129 93 L 132 93 L 132 90 L 129 90 L 129 93 z M 129 96 L 129 99 L 132 99 L 132 96 L 129 96 z M 129 99 L 126 99 L 126 102 L 129 102 L 129 99 z M 129 102 L 129 105 L 132 105 L 132 102 L 129 102 z M 129 105 L 126 105 L 126 108 L 129 108 L 129 105 z M 129 108 L 129 111 L 132 111 L 132 108 L 129 108 z M 129 111 L 126 111 L 126 114 L 129 114 L 129 111 z M 129 114 L 129 117 L 132 117 L 132 114 L 129 114 z M 129 117 L 126 117 L 126 120 L 129 120 L 129 117 z M 126 117 L 126 114 L 123 114 L 123 117 L 126 117 z M 123 117 L 120 117 L 120 120 L 123 120 L 123 117 z M 120 117 L 120 114 L 117 114 L 117 117 L 120 117 z M 117 117 L 114 117 L 114 120 L 117 120 L 117 117 z M 114 117 L 114 114 L 111 114 L 111 117 L 114 117 z M 111 117 L 108 117 L 108 120 L 111 120 L 111 117 z M 108 117 L 108 114 L 105 114 L 105 117 L 108 117 z M 105 117 L 102 117 L 102 120 L 105 120 L 105 117 z M 102 117 L 102 114 L 99 114 L 99 117 L 102 117 z M 99 117 L 96 117 L 96 120 L 99 120 L 99 117 z M 96 117 L 96 114 L 93 114 L 93 117 L 96 117 z M 93 117 L 90 117 L 90 120 L 93 120 L 93 117 z M 90 117 L 90 114 L 87 114 L 87 117 L 90 117 z M 87 117 L 84 117 L 84 120 L 87 120 L 87 117 z M 84 117 L 84 114 L 81 114 L 81 117 L 84 117 z M 81 117 L 78 117 L 78 120 L 81 120 L 81 117 z M 78 117 L 78 114 L 75 114 L 75 117 L 78 117 z M 75 117 L 72 117 L 72 120 L 75 120 L 75 117 z M 72 117 L 72 114 L 69 114 L 69 117 L 72 117 z M 69 117 L 66 117 L 66 120 L 69 120 L 69 117 z M 66 117 L 66 114 L 63 114 L 63 117 L 66 117 z M 63 117 L 60 117 L 60 120 L 63 120 L 63 117 z M 60 117 L 60 114 L 57 114 L 57 117 L 60 117 z M 57 117 L 54 117 L 54 120 L 57 120 L 57 117 z M 54 117 L 54 114 L 51 114 L 51 117 L 54 117 z M 51 117 L 48 117 L 48 120 L 51 120 L 51 117 z M 48 117 L 48 114 L 45 114 L 45 117 L 48 117 z M 45 117 L 42 117 L 42 120 L 45 120 L 45 117 z M 42 117 L 42 114 L 39 114 L 39 117 L 42 117 z M 39 117 L 36 117 L 36 120 L 39 120 L 39 117 z M 36 117 L 36 114 L 33 114 L 33 117 L 36 117 z M 33 117 L 30 117 L 30 120 L 33 120 L 33 117 z M 30 117 L 30 114 L 27 114 L 27 117 L 30 117 z M 27 117 L 24 117 L 24 120 L 27 120 L 27 117 z M 24 117 L 24 114 L 21 114 L 21 117 L 24 117 z M 21 117 L 18 117 L 18 120 L 21 120 L 21 117 z M 18 117 L 18 114 L 15 114 L 15 117 L 18 117 z M 15 117 L 12 117 L 12 120 L 15 120 L 15 117 z M 15 114 L 15 111 L 12 111 L 12 114 L 15 114 z M 15 111 L 18 111 L 18 108 L 15 108 L 15 111 z M 15 108 L 15 105 L 12 105 L 12 108 L 15 108 z M 15 105 L 18 105 L 18 102 L 15 102 L 15 105 z M 15 102 L 15 99 L 12 99 L 12 102 L 15 102 z M 15 99 L 18 99 L 18 96 L 15 96 L 15 99 z M 15 96 L 15 93 L 12 93 L 12 96 L 15 96 z M 15 93 L 18 93 L 18 90 L 15 90 L 15 93 z M 18 93 L 18 96 L 21 96 L 21 93 L 18 93 z M 21 96 L 21 99 L 24 99 L 24 96 L 21 96 z M 24 99 L 24 102 L 27 102 L 27 99 L 24 99 z M 27 102 L 27 105 L 30 105 L 30 102 L 27 102 z M 30 105 L 30 108 L 33 108 L 33 105 L 30 105 z M 33 108 L 33 111 L 36 111 L 36 108 L 33 108 z M 36 108 L 39 108 L 39 105 L 36 105 L 36 108 z M 39 108 L 39 111 L 42 111 L 42 108 L 39 108 z M 42 108 L 45 108 L 45 105 L 42 105 L 42 108 z M 45 105 L 48 105 L 48 102 L 45 102 L 45 105 z M 48 102 L 51 102 L 51 99 L 48 99 L 48 102 z M 51 102 L 51 105 L 54 105 L 54 102 L 51 102 z M 54 102 L 57 102 L 57 99 L 54 99 L 54 102 z M 57 102 L 57 105 L 60 105 L 60 102 L 57 102 z M 60 102 L 63 102 L 63 99 L 60 99 L 60 102 z M 63 102 L 63 105 L 66 105 L 66 102 L 63 102 z M 66 102 L 69 102 L 69 99 L 66 99 L 66 102 z M 69 102 L 69 105 L 72 105 L 72 102 L 69 102 z M 72 102 L 75 102 L 75 99 L 72 99 L 72 102 z M 75 102 L 75 105 L 78 105 L 78 102 L 75 102 z M 78 102 L 81 102 L 81 99 L 78 99 L 78 102 z M 81 102 L 81 105 L 84 105 L 84 102 L 81 102 z M 84 102 L 87 102 L 87 99 L 84 99 L 84 102 z M 87 102 L 87 105 L 90 105 L 90 102 L 87 102 z M 90 102 L 93 102 L 93 99 L 90 99 L 90 102 z M 93 102 L 93 105 L 96 105 L 96 102 L 93 102 z M 96 105 L 96 108 L 99 108 L 99 105 L 96 105 z M 99 108 L 99 111 L 102 111 L 102 108 L 99 108 z M 102 108 L 105 108 L 105 105 L 102 105 L 102 108 z M 105 105 L 108 105 L 108 102 L 105 102 L 105 105 z M 108 102 L 111 102 L 111 99 L 108 99 L 108 102 z M 111 102 L 111 105 L 114 105 L 114 102 L 111 102 z M 114 102 L 117 102 L 117 99 L 114 99 L 114 102 z M 117 102 L 117 105 L 120 105 L 120 102 L 117 102 z M 120 102 L 123 102 L 123 99 L 120 99 L 120 102 z M 123 102 L 123 105 L 126 105 L 126 102 L 123 102 z M 123 105 L 120 105 L 120 108 L 123 108 L 123 105 z M 123 108 L 123 111 L 126 111 L 126 108 L 123 108 z M 123 111 L 120 111 L 120 114 L 123 114 L 123 111 z M 120 111 L 120 108 L 117 108 L 117 111 L 120 111 z M 117 111 L 114 111 L 114 114 L 117 114 L 117 111 z M 114 111 L 114 108 L 111 108 L 111 111 L 114 111 z M 111 111 L 108 111 L 108 114 L 111 114 L 111 111 z M 108 111 L 108 108 L 105 108 L 105 111 L 108 111 z M 105 111 L 102 111 L 102 114 L 105 114 L 105 111 z M 108 108 L 111 108 L 111 105 L 108 105 L 108 108 z M 114 108 L 117 108 L 117 105 L 114 105 L 114 108 z M 99 111 L 96 111 L 96 114 L 99 114 L 99 111 z M 96 111 L 96 108 L 93 108 L 93 111 L 96 111 z M 93 111 L 90 111 L 90 114 L 93 114 L 93 111 z M 90 111 L 90 108 L 87 108 L 87 111 L 90 111 z M 87 111 L 84 111 L 84 114 L 87 114 L 87 111 z M 84 111 L 84 108 L 81 108 L 81 111 L 84 111 z M 81 111 L 78 111 L 78 114 L 81 114 L 81 111 z M 78 111 L 78 108 L 75 108 L 75 111 L 78 111 z M 75 111 L 72 111 L 72 114 L 75 114 L 75 111 z M 72 111 L 72 108 L 69 108 L 69 111 L 72 111 z M 69 111 L 66 111 L 66 114 L 69 114 L 69 111 z M 66 111 L 66 108 L 63 108 L 63 111 L 66 111 z M 63 111 L 60 111 L 60 114 L 63 114 L 63 111 z M 60 111 L 60 108 L 57 108 L 57 111 L 60 111 z M 57 111 L 54 111 L 54 114 L 57 114 L 57 111 z M 54 111 L 54 108 L 51 108 L 51 111 L 54 111 z M 51 111 L 48 111 L 48 114 L 51 114 L 51 111 z M 48 111 L 48 108 L 45 108 L 45 111 L 48 111 z M 45 111 L 42 111 L 42 114 L 45 114 L 45 111 z M 48 108 L 51 108 L 51 105 L 48 105 L 48 108 z M 54 108 L 57 108 L 57 105 L 54 105 L 54 108 z M 60 108 L 63 108 L 63 105 L 60 105 L 60 108 z M 66 108 L 69 108 L 69 105 L 66 105 L 66 108 z M 72 108 L 75 108 L 75 105 L 72 105 L 72 108 z M 78 108 L 81 108 L 81 105 L 78 105 L 78 108 z M 84 108 L 87 108 L 87 105 L 84 105 L 84 108 z M 90 108 L 93 108 L 93 105 L 90 105 L 90 108 z M 39 111 L 36 111 L 36 114 L 39 114 L 39 111 z M 33 111 L 30 111 L 30 114 L 33 114 L 33 111 z M 30 111 L 30 108 L 27 108 L 27 111 L 30 111 z M 27 111 L 24 111 L 24 114 L 27 114 L 27 111 z M 24 111 L 24 108 L 21 108 L 21 111 L 24 111 z M 21 111 L 18 111 L 18 114 L 21 114 L 21 111 z M 21 108 L 21 105 L 18 105 L 18 108 L 21 108 z M 21 105 L 24 105 L 24 102 L 21 102 L 21 105 z M 21 102 L 21 99 L 18 99 L 18 102 L 21 102 z M 24 105 L 24 108 L 27 108 L 27 105 L 24 105 z M 132 87 L 132 84 L 129 84 L 129 87 L 132 87 z M 132 81 L 132 78 L 129 78 L 129 81 L 132 81 z M 132 75 L 132 72 L 129 72 L 129 75 L 132 75 z M 132 69 L 132 66 L 129 66 L 129 69 L 132 69 z M 60 51 L 60 54 L 63 54 L 63 51 L 60 51 z M 18 57 L 18 60 L 21 60 L 21 57 L 18 57 z M 21 60 L 21 63 L 24 63 L 24 60 L 21 60 z M 24 60 L 27 60 L 27 57 L 24 57 L 24 60 z M 27 60 L 27 63 L 30 63 L 30 60 L 27 60 z M 30 60 L 33 60 L 33 57 L 30 57 L 30 60 z M 18 60 L 15 60 L 15 63 L 18 63 L 18 60 z M 36 57 L 36 60 L 39 60 L 39 57 L 36 57 z M 39 60 L 39 63 L 42 63 L 42 60 L 39 60 z M 42 60 L 45 60 L 45 57 L 42 57 L 42 60 z M 45 60 L 45 63 L 48 63 L 48 60 L 45 60 z M 48 60 L 51 60 L 51 57 L 48 57 L 48 60 z M 51 60 L 51 63 L 54 63 L 54 60 L 51 60 z M 60 57 L 60 60 L 63 60 L 63 57 L 60 57 z M 60 60 L 57 60 L 57 63 L 60 63 L 60 60 z M 66 57 L 66 60 L 69 60 L 69 57 L 66 57 z M 69 60 L 69 63 L 72 63 L 72 60 L 69 60 z M 72 60 L 75 60 L 75 57 L 72 57 L 72 60 z M 78 57 L 78 60 L 81 60 L 81 57 L 78 57 z M 81 60 L 81 63 L 84 63 L 84 60 L 81 60 z M 90 57 L 90 60 L 93 60 L 93 57 L 90 57 z M 93 60 L 93 63 L 96 63 L 96 60 L 93 60 z M 90 60 L 87 60 L 87 63 L 90 63 L 90 60 z M 102 57 L 102 60 L 105 60 L 105 57 L 102 57 z M 105 60 L 105 63 L 108 63 L 108 60 L 105 60 z M 108 60 L 111 60 L 111 57 L 108 57 L 108 60 z M 111 60 L 111 63 L 114 63 L 114 60 L 111 60 z M 114 60 L 117 60 L 117 57 L 114 57 L 114 60 z M 102 60 L 99 60 L 99 63 L 102 63 L 102 60 z M 15 66 L 15 69 L 18 69 L 18 66 L 15 66 z M 18 69 L 18 72 L 21 72 L 21 69 L 18 69 z M 21 69 L 24 69 L 24 66 L 21 66 L 21 69 z M 24 69 L 24 72 L 27 72 L 27 69 L 24 69 z M 27 69 L 30 69 L 30 66 L 27 66 L 27 69 z M 30 69 L 30 72 L 33 72 L 33 69 L 30 69 z M 39 66 L 39 69 L 42 69 L 42 66 L 39 66 z M 42 69 L 42 72 L 45 72 L 45 69 L 42 69 z M 45 69 L 48 69 L 48 66 L 45 66 L 45 69 z M 48 69 L 48 72 L 51 72 L 51 69 L 48 69 z M 51 69 L 54 69 L 54 66 L 51 66 L 51 69 z M 39 69 L 36 69 L 36 72 L 39 72 L 39 69 z M 57 66 L 57 69 L 60 69 L 60 66 L 57 66 z M 60 69 L 60 72 L 63 72 L 63 69 L 60 69 z M 63 69 L 66 69 L 66 66 L 63 66 L 63 69 z M 66 69 L 66 72 L 69 72 L 69 69 L 66 69 z M 69 69 L 72 69 L 72 66 L 69 66 L 69 69 z M 72 69 L 72 72 L 75 72 L 75 69 L 72 69 z M 81 66 L 81 69 L 84 69 L 84 66 L 81 66 z M 84 69 L 84 72 L 87 72 L 87 69 L 84 69 z M 87 69 L 90 69 L 90 66 L 87 66 L 87 69 z M 90 69 L 90 72 L 93 72 L 93 69 L 90 69 z M 93 69 L 96 69 L 96 66 L 93 66 L 93 69 z M 81 69 L 78 69 L 78 72 L 81 72 L 81 69 z M 99 66 L 99 69 L 102 69 L 102 66 L 99 66 z M 102 69 L 102 72 L 105 72 L 105 69 L 102 69 z M 111 66 L 111 69 L 114 69 L 114 66 L 111 66 z M 114 69 L 114 72 L 117 72 L 117 69 L 114 69 z M 111 69 L 108 69 L 108 72 L 111 72 L 111 69 z M 123 66 L 123 69 L 126 69 L 126 66 L 123 66 z M 123 69 L 120 69 L 120 72 L 123 72 L 123 69 z M 18 75 L 18 78 L 21 78 L 21 75 L 18 75 z M 21 78 L 21 81 L 24 81 L 24 78 L 21 78 z M 24 78 L 27 78 L 27 75 L 24 75 L 24 78 z M 27 78 L 27 81 L 30 81 L 30 78 L 27 78 z M 30 78 L 33 78 L 33 75 L 30 75 L 30 78 z M 18 78 L 15 78 L 15 81 L 18 81 L 18 78 z M 36 75 L 36 78 L 39 78 L 39 75 L 36 75 z M 39 78 L 39 81 L 42 81 L 42 78 L 39 78 z M 42 78 L 45 78 L 45 75 L 42 75 L 42 78 z M 60 75 L 60 78 L 63 78 L 63 75 L 60 75 z M 60 78 L 57 78 L 57 81 L 60 81 L 60 78 z M 78 75 L 78 78 L 81 78 L 81 75 L 78 75 z M 81 78 L 81 81 L 84 81 L 84 78 L 81 78 z M 84 78 L 87 78 L 87 75 L 84 75 L 84 78 z M 87 78 L 87 81 L 90 81 L 90 78 L 87 78 z M 90 78 L 93 78 L 93 75 L 90 75 L 90 78 z M 93 78 L 93 81 L 96 81 L 96 78 L 93 78 z M 78 78 L 75 78 L 75 81 L 78 81 L 78 78 z M 102 75 L 102 78 L 105 78 L 105 75 L 102 75 z M 102 78 L 99 78 L 99 81 L 102 81 L 102 78 z M 108 75 L 108 78 L 111 78 L 111 75 L 108 75 z M 111 78 L 111 81 L 114 81 L 114 78 L 111 78 z M 114 78 L 117 78 L 117 75 L 114 75 L 114 78 z M 120 75 L 120 78 L 123 78 L 123 75 L 120 75 z M 123 78 L 123 81 L 126 81 L 126 78 L 123 78 z M 39 84 L 39 87 L 42 87 L 42 84 L 39 84 z M 39 87 L 36 87 L 36 90 L 39 90 L 39 87 z M 45 84 L 45 87 L 48 87 L 48 84 L 45 84 z M 48 87 L 48 90 L 51 90 L 51 87 L 48 87 z M 51 87 L 54 87 L 54 84 L 51 84 L 51 87 z M 69 84 L 69 87 L 72 87 L 72 84 L 69 84 z M 72 87 L 72 90 L 75 90 L 75 87 L 72 87 z M 69 87 L 66 87 L 66 90 L 69 90 L 69 87 z M 87 84 L 87 87 L 90 87 L 90 84 L 87 84 z M 87 87 L 84 87 L 84 90 L 87 90 L 87 87 z M 99 84 L 99 87 L 102 87 L 102 84 L 99 84 z M 102 87 L 102 90 L 105 90 L 105 87 L 102 87 z M 111 84 L 111 87 L 114 87 L 114 84 L 111 84 z M 114 87 L 114 90 L 117 90 L 117 87 L 114 87 z M 117 87 L 120 87 L 120 84 L 117 84 L 117 87 z M 120 87 L 120 90 L 123 90 L 123 87 L 120 87 z M 123 87 L 126 87 L 126 84 L 123 84 L 123 87 z M 111 87 L 108 87 L 108 90 L 111 90 L 111 87 z "
     id="rect3374" />
  <path
     style="fill:#c0c0c0"
     d="M 21 15 L 21 18 L 24 18 L 24 15 L 21 15 z M 24 18 L 24 21 L 27 21 L 27 18 L 24 18 z M 27 18 L 30 18 L 30 15 L 27 15 L 27 18 z M 30 18 L 30 21 L 33 21 L 33 18 L 30 18 z M 33 18 L 36 18 L 36 15 L 33 15 L 33 18 z M 36 18 L 36 21 L 39 21 L 39 18 L 36 18 z M 39 18 L 42 18 L 42 15 L 39 15 L 39 18 z M 42 18 L 42 21 L 45 21 L 45 18 L 42 18 z M 45 18 L 48 18 L 48 15 L 45 15 L 45 18 z M 48 18 L 48 21 L 51 21 L 51 18 L 48 18 z M 51 18 L 54 18 L 54 15 L 51 15 L 51 18 z M 54 18 L 54 21 L 57 21 L 57 18 L 54 18 z M 57 18 L 60 18 L 60 15 L 57 15 L 57 18 z M 60 18 L 60 21 L 63 21 L 63 18 L 60 18 z M 63 21 L 63 24 L 66 24 L 66 21 L 63 21 z M 66 24 L 66 27 L 63 27 L 63 24 L 60 24 L 60 27 L 57 27 L 57 24 L 54 24 L 54 27 L 51 27 L 51 24 L 48 24 L 48 27 L 45 27 L 45 24 L 42 24 L 42 27 L 39 27 L 39 24 L 36 24 L 36 27 L 33 27 L 33 24 L 30 24 L 30 27 L 27 27 L 27 24 L 24 24 L 24 27 L 21 27 L 21 24 L 18 24 L 18 27 L 15 27 L 15 24 L 12 24 L 12 27 L 9 27 L 6 27 L 3 27 L 3 30 L 6 30 L 9 30 L 12 30 L 15 30 L 18 30 L 21 30 L 24 30 L 27 30 L 30 30 L 33 30 L 36 30 L 39 30 L 42 30 L 45 30 L 48 30 L 51 30 L 54 30 L 57 30 L 60 30 L 63 30 L 66 30 L 69 30 L 72 30 L 72 27 L 69 27 L 69 24 L 66 24 z M 15 24 L 18 24 L 18 21 L 15 21 L 15 24 z M 18 21 L 21 21 L 21 18 L 18 18 L 18 21 z M 21 21 L 21 24 L 24 24 L 24 21 L 21 21 z M 27 24 L 30 24 L 30 21 L 27 21 L 27 24 z M 33 24 L 36 24 L 36 21 L 33 21 L 33 24 z M 39 24 L 42 24 L 42 21 L 39 21 L 39 24 z M 45 24 L 48 24 L 48 21 L 45 21 L 45 24 z M 51 24 L 54 24 L 54 21 L 51 21 L 51 24 z M 57 24 L 60 24 L 60 21 L 57 21 L 57 24 z M 9 33 L 9 36 L 12 36 L 12 33 L 9 33 z M 12 36 L 12 39 L 15 39 L 15 36 L 12 36 z M 15 36 L 18 36 L 18 33 L 15 33 L 15 36 z M 18 36 L 18 39 L 21 39 L 21 36 L 18 36 z M 21 36 L 24 36 L 24 33 L 21 33 L 21 36 z M 24 36 L 24 39 L 27 39 L 27 36 L 24 36 z M 27 36 L 30 36 L 30 33 L 27 33 L 27 36 z M 30 36 L 30 39 L 33 39 L 33 36 L 30 36 z M 33 36 L 36 36 L 36 33 L 33 33 L 33 36 z M 36 36 L 36 39 L 39 39 L 39 36 L 36 36 z M 39 36 L 42 36 L 42 33 L 39 33 L 39 36 z M 42 36 L 42 39 L 45 39 L 45 36 L 42 36 z M 45 36 L 48 36 L 48 33 L 45 33 L 45 36 z M 48 36 L 48 39 L 51 39 L 51 36 L 48 36 z M 51 36 L 54 36 L 54 33 L 51 33 L 51 36 z M 54 36 L 54 39 L 57 39 L 57 36 L 54 36 z M 57 36 L 60 36 L 60 33 L 57 33 L 57 36 z M 60 36 L 60 39 L 63 39 L 63 36 L 60 36 z M 63 36 L 66 36 L 66 33 L 63 33 L 63 36 z M 66 36 L 66 39 L 69 39 L 69 36 L 66 36 z M 69 36 L 72 36 L 72 33 L 69 33 L 69 36 z M 72 36 L 72 39 L 75 39 L 75 36 L 72 36 z M 75 36 L 78 36 L 78 33 L 75 33 L 75 36 z M 78 36 L 78 39 L 81 39 L 81 36 L 78 36 z M 81 36 L 84 36 L 84 33 L 81 33 L 81 36 z M 84 36 L 84 39 L 87 39 L 87 36 L 84 36 z M 87 36 L 90 36 L 90 33 L 87 33 L 87 36 z M 90 36 L 90 39 L 93 39 L 93 36 L 90 36 z M 93 36 L 96 36 L 96 33 L 93 33 L 93 36 z M 96 36 L 96 39 L 99 39 L 99 36 L 96 36 z M 99 36 L 102 36 L 102 33 L 99 33 L 99 36 z M 102 36 L 102 39 L 105 39 L 105 36 L 102 36 z M 105 36 L 108 36 L 108 33 L 105 33 L 105 36 z M 108 36 L 108 39 L 111 39 L 111 36 L 108 36 z M 111 36 L 114 36 L 114 33 L 111 33 L 111 36 z M 114 36 L 114 39 L 117 39 L 117 36 L 114 36 z M 117 36 L 120 36 L 120 33 L 117 33 L 117 36 z M 120 36 L 120 39 L 123 39 L 123 36 L 120 36 z M 123 36 L 126 36 L 126 33 L 123 33 L 123 36 z M 126 36 L 126 39 L 129 39 L 129 36 L 126 36 z M 129 36 L 132 36 L 132 33 L 129 33 L 129 36 z M 132 36 L 132 39 L 135 39 L 135 36 L 132 36 z M 135 36 L 138 36 L 138 33 L 135 33 L 135 36 z M 135 39 L 135 42 L 138 42 L 138 39 L 135 39 z M 135 42 L 132 42 L 132 45 L 135 45 L 135 42 z M 135 45 L 135 48 L 138 48 L 138 45 L 135 45 z M 135 48 L 132 48 L 132 51 L 135 51 L 135 48 z M 135 51 L 135 54 L 138 54 L 138 51 L 135 51 z M 135 54 L 132 54 L 132 57 L 135 57 L 135 54 z M 135 57 L 135 60 L 138 60 L 138 57 L 135 57 z M 135 60 L 132 60 L 132 63 L 135 63 L 135 60 z M 135 63 L 135 66 L 138 66 L 138 63 L 135 63 z M 135 66 L 132 66 L 132 69 L 135 69 L 135 66 z M 135 69 L 135 72 L 138 72 L 138 69 L 135 69 z M 135 72 L 132 72 L 132 75 L 135 75 L 135 72 z M 135 75 L 135 78 L 138 78 L 138 75 L 135 75 z M 135 78 L 132 78 L 132 81 L 135 81 L 135 78 z M 135 81 L 135 84 L 138 84 L 138 81 L 135 81 z M 135 84 L 132 84 L 132 87 L 135 87 L 135 84 z M 135 87 L 135 90 L 138 90 L 138 87 L 135 87 z M 135 90 L 132 90 L 132 93 L 135 93 L 135 90 z M 135 93 L 135 96 L 138 96 L 138 93 L 135 93 z M 135 96 L 132 96 L 132 99 L 135 99 L 135 96 z M 135 99 L 135 102 L 138 102 L 138 99 L 135 99 z M 135 102 L 132 102 L 132 105 L 135 105 L 135 102 z M 135 105 L 135 108 L 138 108 L 138 105 L 135 105 z M 135 108 L 132 108 L 132 111 L 135 111 L 135 108 z M 135 111 L 135 114 L 138 114 L 138 111 L 135 111 z M 135 114 L 132 114 L 132 117 L 135 117 L 135 114 z M 135 117 L 135 120 L 138 120 L 138 117 L 135 117 z M 135 120 L 132 120 L 132 123 L 135 123 L 135 120 z M 135 123 L 135 126 L 138 126 L 138 123 L 135 123 z M 132 123 L 129 123 L 129 126 L 132 126 L 132 123 z M 129 123 L 129 120 L 126 120 L 126 123 L 129 123 z M 126 123 L 123 123 L 123 126 L 126 126 L 126 123 z M 123 123 L 123 120 L 120 120 L 120 123 L 123 123 z M 120 123 L 117 123 L 117 126 L 120 126 L 120 123 z M 117 123 L 117 120 L 114 120 L 114 123 L 117 123 z M 114 123 L 111 123 L 111 126 L 114 126 L 114 123 z M 111 123 L 111 120 L 108 120 L 108 123 L 111 123 z M 108 123 L 105 123 L 105 126 L 108 126 L 108 123 z M 105 123 L 105 120 L 102 120 L 102 123 L 105 123 z M 102 123 L 99 123 L 99 126 L 102 126 L 102 123 z M 99 123 L 99 120 L 96 120 L 96 123 L 99 123 z M 96 123 L 93 123 L 93 126 L 96 126 L 96 123 z M 93 123 L 93 120 L 90 120 L 90 123 L 93 123 z M 90 123 L 87 123 L 87 126 L 90 126 L 90 123 z M 87 123 L 87 120 L 84 120 L 84 123 L 87 123 z M 84 123 L 81 123 L 81 126 L 84 126 L 84 123 z M 81 123 L 81 120 L 78 120 L 78 123 L 81 123 z M 78 123 L 75 123 L 75 126 L 78 126 L 78 123 z M 75 123 L 75 120 L 72 120 L 72 123 L 75 123 z M 72 123 L 69 123 L 69 126 L 72 126 L 72 123 z M 69 123 L 69 120 L 66 120 L 66 123 L 69 123 z M 66 123 L 63 123 L 63 126 L 66 126 L 66 123 z M 63 123 L 63 120 L 60 120 L 60 123 L 63 123 z M 60 123 L 57 123 L 57 126 L 60 126 L 60 123 z M 57 123 L 57 120 L 54 120 L 54 123 L 57 123 z M 54 123 L 51 123 L 51 126 L 54 126 L 54 123 z M 51 123 L 51 120 L 48 120 L 48 123 L 51 123 z M 48 123 L 45 123 L 45 126 L 48 126 L 48 123 z M 45 123 L 45 120 L 42 120 L 42 123 L 45 123 z M 42 123 L 39 123 L 39 126 L 42 126 L 42 123 z M 39 123 L 39 120 L 36 120 L 36 123 L 39 123 z M 36 123 L 33 123 L 33 126 L 36 126 L 36 123 z M 33 123 L 33 120 L 30 120 L 30 123 L 33 123 z M 30 123 L 27 123 L 27 126 L 30 126 L 30 123 z M 27 123 L 27 120 L 24 120 L 24 123 L 27 123 z M 24 123 L 21 123 L 21 126 L 24 126 L 24 123 z M 21 123 L 21 120 L 18 120 L 18 123 L 21 123 z M 18 123 L 15 123 L 15 126 L 18 126 L 18 123 z M 15 123 L 15 120 L 12 120 L 12 123 L 15 123 z M 12 123 L 9 123 L 9 126 L 12 126 L 12 123 z M 9 123 L 9 120 L 6 120 L 6 123 L 9 123 z M 9 120 L 12 120 L 12 117 L 9 117 L 9 120 z M 9 117 L 9 114 L 6 114 L 6 117 L 9 117 z M 9 114 L 12 114 L 12 111 L 9 111 L 9 114 z M 9 111 L 9 108 L 6 108 L 6 111 L 9 111 z M 9 108 L 12 108 L 12 105 L 9 105 L 9 108 z M 9 105 L 9 102 L 6 102 L 6 105 L 9 105 z M 9 102 L 12 102 L 12 99 L 9 99 L 9 102 z M 9 99 L 9 96 L 6 96 L 6 99 L 9 99 z M 9 96 L 12 96 L 12 93 L 9 93 L 9 96 z M 9 93 L 9 90 L 6 90 L 6 93 L 9 93 z M 9 90 L 12 90 L 12 87 L 9 87 L 9 90 z M 9 87 L 9 84 L 6 84 L 6 87 L 9 87 z M 9 84 L 12 84 L 12 81 L 9 81 L 9 84 z M 9 81 L 9 78 L 6 78 L 6 81 L 9 81 z M 9 78 L 12 78 L 12 75 L 9 75 L 9 78 z M 9 75 L 9 72 L 6 72 L 6 75 L 9 75 z M 9 72 L 12 72 L 12 69 L 9 69 L 9 72 z M 9 69 L 9 66 L 6 66 L 6 69 L 9 69 z M 9 66 L 12 66 L 12 63 L 9 63 L 9 66 z M 9 63 L 9 60 L 6 60 L 6 63 L 9 63 z M 9 60 L 12 60 L 12 57 L 9 57 L 9 60 z M 9 57 L 9 54 L 6 54 L 6 57 L 9 57 z M 9 54 L 12 54 L 12 51 L 9 51 L 9 54 z M 9 51 L 9 48 L 6 48 L 6 51 L 9 51 z M 9 48 L 12 48 L 12 45 L 9 45 L 9 48 z M 9 45 L 9 42 L 6 42 L 6 45 L 9 45 z M 9 42 L 12 42 L 12 39 L 9 39 L 9 42 z M 9 39 L 9 36 L 6 36 L 6 39 L 9 39 z M 12 42 L 12 45 L 15 45 L 15 42 L 12 42 z M 15 42 L 18 42 L 18 39 L 15 39 L 15 42 z M 18 42 L 18 45 L 21 45 L 21 42 L 18 42 z M 21 42 L 24 42 L 24 39 L 21 39 L 21 42 z M 24 42 L 24 45 L 27 45 L 27 42 L 24 42 z M 27 42 L 30 42 L 30 39 L 27 39 L 27 42 z M 30 42 L 30 45 L 33 45 L 33 42 L 30 42 z M 33 42 L 36 42 L 36 39 L 33 39 L 33 42 z M 36 42 L 36 45 L 39 45 L 39 42 L 36 42 z M 39 42 L 42 42 L 42 39 L 39 39 L 39 42 z M 42 42 L 42 45 L 45 45 L 45 42 L 42 42 z M 45 42 L 48 42 L 48 39 L 45 39 L 45 42 z M 48 42 L 48 45 L 51 45 L 51 42 L 48 42 z M 51 42 L 54 42 L 54 39 L 51 39 L 51 42 z M 54 42 L 54 45 L 57 45 L 57 42 L 54 42 z M 57 42 L 60 42 L 60 39 L 57 39 L 57 42 z M 60 42 L 60 45 L 63 45 L 63 42 L 60 42 z M 63 42 L 66 42 L 66 39 L 63 39 L 63 42 z M 66 42 L 66 45 L 69 45 L 69 42 L 66 42 z M 69 42 L 72 42 L 72 39 L 69 39 L 69 42 z M 72 42 L 72 45 L 75 45 L 75 42 L 72 42 z M 75 42 L 78 42 L 78 39 L 75 39 L 75 42 z M 78 42 L 78 45 L 81 45 L 81 42 L 78 42 z M 81 42 L 84 42 L 84 39 L 81 39 L 81 42 z M 84 42 L 84 45 L 87 45 L 87 42 L 84 42 z M 87 42 L 90 42 L 90 39 L 87 39 L 87 42 z M 90 42 L 90 45 L 93 45 L 93 42 L 90 42 z M 93 42 L 96 42 L 96 39 L 93 39 L 93 42 z M 96 42 L 96 45 L 99 45 L 99 42 L 96 42 z M 99 42 L 102 42 L 102 39 L 99 39 L 99 42 z M 102 42 L 102 45 L 105 45 L 105 42 L 102 42 z M 105 42 L 108 42 L 108 39 L 105 39 L 105 42 z M 108 42 L 108 45 L 111 45 L 111 42 L 108 42 z M 111 42 L 114 42 L 114 39 L 111 39 L 111 42 z M 114 42 L 114 45 L 117 45 L 117 42 L 114 42 z M 117 42 L 120 42 L 120 39 L 117 39 L 117 42 z M 120 42 L 120 45 L 123 45 L 123 42 L 120 42 z M 123 42 L 126 42 L 126 39 L 123 39 L 123 42 z M 126 42 L 126 45 L 129 45 L 129 42 L 126 42 z M 129 42 L 132 42 L 132 39 L 129 39 L 129 42 z M 129 45 L 129 48 L 132 48 L 132 45 L 129 45 z M 129 48 L 126 48 L 126 51 L 129 51 L 129 48 z M 129 51 L 129 54 L 132 54 L 132 51 L 129 51 z M 129 54 L 126 54 L 126 57 L 129 57 L 129 54 z M 129 57 L 129 60 L 132 60 L 132 57 L 129 57 z M 129 60 L 126 60 L 126 63 L 123 63 L 123 60 L 120 60 L 120 63 L 120 66 L 120 69 L 123 69 L 123 66 L 126 66 L 126 69 L 123 69 L 123 72 L 120 72 L 120 75 L 123 75 L 123 78 L 126 78 L 126 81 L 123 81 L 123 78 L 120 78 L 120 81 L 120 84 L 120 87 L 123 87 L 123 84 L 126 84 L 126 87 L 123 87 L 123 90 L 120 90 L 120 87 L 117 87 L 117 90 L 114 90 L 114 87 L 111 87 L 111 90 L 108 90 L 108 87 L 111 87 L 111 84 L 108 84 L 105 84 L 102 84 L 102 87 L 105 87 L 105 90 L 102 90 L 102 87 L 99 87 L 99 90 L 96 90 L 96 93 L 93 93 L 93 96 L 96 96 L 96 99 L 99 99 L 99 102 L 102 102 L 102 99 L 105 99 L 105 96 L 108 96 L 108 93 L 111 93 L 111 96 L 114 96 L 114 93 L 117 93 L 117 96 L 120 96 L 120 93 L 123 93 L 123 96 L 126 96 L 126 93 L 129 93 L 129 90 L 132 90 L 132 87 L 129 87 L 129 84 L 132 84 L 132 81 L 129 81 L 129 78 L 132 78 L 132 75 L 129 75 L 129 72 L 132 72 L 132 69 L 129 69 L 129 66 L 132 66 L 132 63 L 129 63 L 129 60 z M 129 93 L 129 96 L 132 96 L 132 93 L 129 93 z M 129 96 L 126 96 L 126 99 L 129 99 L 129 96 z M 129 99 L 129 102 L 132 102 L 132 99 L 129 99 z M 129 102 L 126 102 L 126 105 L 129 105 L 129 102 z M 129 105 L 129 108 L 132 108 L 132 105 L 129 105 z M 129 108 L 126 108 L 126 111 L 129 111 L 129 108 z M 129 111 L 129 114 L 132 114 L 132 111 L 129 111 z M 129 114 L 126 114 L 126 117 L 129 117 L 129 114 z M 129 117 L 129 120 L 132 120 L 132 117 L 129 117 z M 126 117 L 123 117 L 123 120 L 126 120 L 126 117 z M 123 117 L 123 114 L 120 114 L 120 117 L 123 117 z M 120 117 L 117 117 L 117 120 L 120 120 L 120 117 z M 117 117 L 117 114 L 114 114 L 114 117 L 117 117 z M 114 117 L 111 117 L 111 120 L 114 120 L 114 117 z M 111 117 L 111 114 L 108 114 L 108 117 L 111 117 z M 108 117 L 105 117 L 105 120 L 108 120 L 108 117 z M 105 117 L 105 114 L 102 114 L 102 117 L 105 117 z M 102 117 L 99 117 L 99 120 L 102 120 L 102 117 z M 99 117 L 99 114 L 96 114 L 96 117 L 99 117 z M 96 117 L 93 117 L 93 120 L 96 120 L 96 117 z M 93 117 L 93 114 L 90 114 L 90 117 L 93 117 z M 90 117 L 87 117 L 87 120 L 90 120 L 90 117 z M 87 117 L 87 114 L 84 114 L 84 117 L 87 117 z M 84 117 L 81 117 L 81 120 L 84 120 L 84 117 z M 81 117 L 81 114 L 78 114 L 78 117 L 81 117 z M 78 117 L 75 117 L 75 120 L 78 120 L 78 117 z M 75 117 L 75 114 L 72 114 L 72 117 L 75 117 z M 72 117 L 69 117 L 69 120 L 72 120 L 72 117 z M 69 117 L 69 114 L 66 114 L 66 117 L 69 117 z M 66 117 L 63 117 L 63 120 L 66 120 L 66 117 z M 63 117 L 63 114 L 60 114 L 60 117 L 63 117 z M 60 117 L 57 117 L 57 120 L 60 120 L 60 117 z M 57 117 L 57 114 L 54 114 L 54 117 L 57 117 z M 54 117 L 51 117 L 51 120 L 54 120 L 54 117 z M 51 117 L 51 114 L 48 114 L 48 117 L 51 117 z M 48 117 L 45 117 L 45 120 L 48 120 L 48 117 z M 45 117 L 45 114 L 42 114 L 42 117 L 45 117 z M 42 117 L 39 117 L 39 120 L 42 120 L 42 117 z M 39 117 L 39 114 L 36 114 L 36 117 L 39 117 z M 36 117 L 33 117 L 33 120 L 36 120 L 36 117 z M 33 117 L 33 114 L 30 114 L 30 117 L 33 117 z M 30 117 L 27 117 L 27 120 L 30 120 L 30 117 z M 27 117 L 27 114 L 24 114 L 24 117 L 27 117 z M 24 117 L 21 117 L 21 120 L 24 120 L 24 117 z M 21 117 L 21 114 L 18 114 L 18 117 L 21 117 z M 18 117 L 15 117 L 15 120 L 18 120 L 18 117 z M 15 117 L 15 114 L 12 114 L 12 117 L 15 117 z M 15 114 L 18 114 L 18 111 L 15 111 L 15 114 z M 15 111 L 15 108 L 12 108 L 12 111 L 15 111 z M 15 108 L 18 108 L 18 105 L 15 105 L 15 108 z M 15 105 L 15 102 L 12 102 L 12 105 L 15 105 z M 15 102 L 18 102 L 18 99 L 15 99 L 15 102 z M 15 99 L 15 96 L 12 96 L 12 99 L 15 99 z M 15 96 L 18 96 L 18 93 L 15 93 L 15 96 z M 15 93 L 15 90 L 12 90 L 12 93 L 15 93 z M 15 90 L 18 90 L 18 87 L 15 87 L 15 90 z M 15 87 L 15 84 L 12 84 L 12 87 L 15 87 z M 18 87 L 21 87 L 21 84 L 18 84 L 18 87 z M 21 87 L 21 90 L 24 90 L 24 87 L 21 87 z M 24 87 L 27 87 L 27 84 L 24 84 L 24 87 z M 21 90 L 18 90 L 18 93 L 21 93 L 21 90 z M 21 93 L 21 96 L 24 96 L 24 93 L 21 93 z M 24 96 L 24 99 L 27 99 L 27 96 L 24 96 z M 27 96 L 30 96 L 30 93 L 27 93 L 27 96 z M 30 96 L 30 99 L 33 99 L 33 102 L 36 102 L 36 99 L 39 99 L 39 102 L 42 102 L 42 99 L 45 99 L 45 96 L 48 96 L 48 93 L 51 93 L 51 96 L 54 96 L 54 93 L 57 93 L 57 96 L 60 96 L 60 93 L 63 93 L 63 96 L 66 96 L 66 93 L 69 93 L 69 96 L 72 96 L 72 93 L 75 93 L 75 96 L 78 96 L 78 93 L 81 93 L 81 96 L 84 96 L 84 93 L 87 93 L 87 90 L 84 90 L 84 87 L 87 87 L 87 84 L 84 84 L 81 84 L 78 84 L 75 84 L 72 84 L 72 87 L 75 87 L 75 90 L 72 90 L 72 87 L 69 87 L 69 90 L 66 90 L 66 87 L 69 87 L 69 84 L 66 84 L 63 84 L 60 84 L 57 84 L 54 84 L 54 87 L 51 87 L 51 90 L 48 90 L 48 87 L 45 87 L 45 84 L 42 84 L 42 87 L 39 87 L 39 90 L 36 90 L 33 90 L 33 93 L 33 96 L 30 96 z M 39 87 L 39 84 L 36 84 L 36 87 L 39 87 z M 48 87 L 51 87 L 51 84 L 48 84 L 48 87 z M 87 93 L 87 96 L 90 96 L 90 93 L 87 93 z M 90 96 L 90 99 L 93 99 L 93 96 L 90 96 z M 93 99 L 93 102 L 96 102 L 96 99 L 93 99 z M 96 102 L 96 105 L 99 105 L 99 102 L 96 102 z M 99 105 L 99 108 L 102 108 L 102 105 L 99 105 z M 102 105 L 105 105 L 105 102 L 102 102 L 102 105 z M 105 102 L 108 102 L 108 99 L 105 99 L 105 102 z M 108 99 L 111 99 L 111 96 L 108 96 L 108 99 z M 111 99 L 111 102 L 114 102 L 114 99 L 111 99 z M 114 99 L 117 99 L 117 96 L 114 96 L 114 99 z M 117 99 L 117 102 L 120 102 L 120 99 L 117 99 z M 120 99 L 123 99 L 123 96 L 120 96 L 120 99 z M 123 99 L 123 102 L 126 102 L 126 99 L 123 99 z M 123 102 L 120 102 L 120 105 L 123 105 L 123 102 z M 123 105 L 123 108 L 126 108 L 126 105 L 123 105 z M 123 108 L 120 108 L 120 111 L 123 111 L 123 108 z M 123 111 L 123 114 L 126 114 L 126 111 L 123 111 z M 120 111 L 117 111 L 117 114 L 120 114 L 120 111 z M 117 111 L 117 108 L 114 108 L 114 111 L 117 111 z M 114 111 L 111 111 L 111 114 L 114 114 L 114 111 z M 111 111 L 111 108 L 108 108 L 108 111 L 111 111 z M 108 111 L 105 111 L 105 114 L 108 114 L 108 111 z M 105 111 L 105 108 L 102 108 L 102 111 L 105 111 z M 102 111 L 99 111 L 99 114 L 102 114 L 102 111 z M 99 111 L 99 108 L 96 108 L 96 111 L 99 111 z M 96 111 L 93 111 L 93 114 L 96 114 L 96 111 z M 93 111 L 93 108 L 90 108 L 90 111 L 93 111 z M 90 111 L 87 111 L 87 114 L 90 114 L 90 111 z M 87 111 L 87 108 L 84 108 L 84 111 L 87 111 z M 84 111 L 81 111 L 81 114 L 84 114 L 84 111 z M 81 111 L 81 108 L 78 108 L 78 111 L 81 111 z M 78 111 L 75 111 L 75 114 L 78 114 L 78 111 z M 75 111 L 75 108 L 72 108 L 72 111 L 75 111 z M 72 111 L 69 111 L 69 114 L 72 114 L 72 111 z M 69 111 L 69 108 L 66 108 L 66 111 L 69 111 z M 66 111 L 63 111 L 63 114 L 66 114 L 66 111 z M 63 111 L 63 108 L 60 108 L 60 111 L 63 111 z M 60 111 L 57 111 L 57 114 L 60 114 L 60 111 z M 57 111 L 57 108 L 54 108 L 54 111 L 57 111 z M 54 111 L 51 111 L 51 114 L 54 114 L 54 111 z M 51 111 L 51 108 L 48 108 L 48 111 L 51 111 z M 48 111 L 45 111 L 45 114 L 48 114 L 48 111 z M 45 111 L 45 108 L 42 108 L 42 111 L 45 111 z M 42 111 L 39 111 L 39 114 L 42 114 L 42 111 z M 39 111 L 39 108 L 36 108 L 36 111 L 39 111 z M 36 111 L 33 111 L 33 114 L 36 114 L 36 111 z M 33 111 L 33 108 L 30 108 L 30 111 L 33 111 z M 30 111 L 27 111 L 27 114 L 30 114 L 30 111 z M 27 111 L 27 108 L 24 108 L 24 111 L 27 111 z M 24 111 L 21 111 L 21 114 L 24 114 L 24 111 z M 21 111 L 21 108 L 18 108 L 18 111 L 21 111 z M 21 108 L 24 108 L 24 105 L 21 105 L 21 108 z M 21 105 L 21 102 L 18 102 L 18 105 L 21 105 z M 21 102 L 24 102 L 24 99 L 21 99 L 21 102 z M 21 99 L 21 96 L 18 96 L 18 99 L 21 99 z M 24 102 L 24 105 L 27 105 L 27 102 L 24 102 z M 27 102 L 30 102 L 30 99 L 27 99 L 27 102 z M 30 102 L 30 105 L 33 105 L 33 102 L 30 102 z M 33 105 L 33 108 L 36 108 L 36 105 L 33 105 z M 36 105 L 39 105 L 39 102 L 36 102 L 36 105 z M 39 105 L 39 108 L 42 108 L 42 105 L 39 105 z M 42 105 L 45 105 L 45 102 L 42 102 L 42 105 z M 45 102 L 48 102 L 48 99 L 45 99 L 45 102 z M 48 99 L 51 99 L 51 96 L 48 96 L 48 99 z M 51 99 L 51 102 L 54 102 L 54 99 L 51 99 z M 54 99 L 57 99 L 57 96 L 54 96 L 54 99 z M 57 99 L 57 102 L 60 102 L 60 99 L 57 99 z M 60 99 L 63 99 L 63 96 L 60 96 L 60 99 z M 63 99 L 63 102 L 66 102 L 66 99 L 63 99 z M 66 99 L 69 99 L 69 96 L 66 96 L 66 99 z M 69 99 L 69 102 L 72 102 L 72 99 L 69 99 z M 72 99 L 75 99 L 75 96 L 72 96 L 72 99 z M 75 99 L 75 102 L 78 102 L 78 99 L 75 99 z M 78 99 L 81 99 L 81 96 L 78 96 L 78 99 z M 81 99 L 81 102 L 84 102 L 84 99 L 81 99 z M 84 99 L 87 99 L 87 96 L 84 96 L 84 99 z M 87 99 L 87 102 L 90 102 L 90 99 L 87 99 z M 90 102 L 90 105 L 93 105 L 93 102 L 90 102 z M 93 105 L 93 108 L 96 108 L 96 105 L 93 105 z M 90 105 L 87 105 L 87 108 L 90 108 L 90 105 z M 87 105 L 87 102 L 84 102 L 84 105 L 87 105 z M 84 105 L 81 105 L 81 108 L 84 108 L 84 105 z M 81 105 L 81 102 L 78 102 L 78 105 L 81 105 z M 78 105 L 75 105 L 75 108 L 78 108 L 78 105 z M 75 105 L 75 102 L 72 102 L 72 105 L 75 105 z M 72 105 L 69 105 L 69 108 L 72 108 L 72 105 z M 69 105 L 69 102 L 66 102 L 66 105 L 69 105 z M 66 105 L 63 105 L 63 108 L 66 108 L 66 105 z M 63 105 L 63 102 L 60 102 L 60 105 L 63 105 z M 60 105 L 57 105 L 57 108 L 60 108 L 60 105 z M 57 105 L 57 102 L 54 102 L 54 105 L 57 105 z M 54 105 L 51 105 L 51 108 L 54 108 L 54 105 z M 51 105 L 51 102 L 48 102 L 48 105 L 51 105 z M 48 105 L 45 105 L 45 108 L 48 108 L 48 105 z M 30 105 L 27 105 L 27 108 L 30 108 L 30 105 z M 105 108 L 108 108 L 108 105 L 105 105 L 105 108 z M 108 105 L 111 105 L 111 102 L 108 102 L 108 105 z M 111 105 L 111 108 L 114 108 L 114 105 L 111 105 z M 114 105 L 117 105 L 117 102 L 114 102 L 114 105 z M 117 105 L 117 108 L 120 108 L 120 105 L 117 105 z M 114 87 L 117 87 L 117 84 L 114 84 L 114 87 z M 123 60 L 126 60 L 126 57 L 123 57 L 123 60 z M 123 57 L 123 54 L 120 54 L 120 57 L 123 57 z M 120 54 L 120 51 L 117 51 L 117 54 L 120 54 z M 117 51 L 117 48 L 114 48 L 114 51 L 117 51 z M 114 51 L 111 51 L 111 54 L 114 54 L 114 51 z M 111 51 L 111 48 L 108 48 L 108 51 L 111 51 z M 108 51 L 105 51 L 105 54 L 108 54 L 108 51 z M 105 51 L 105 48 L 102 48 L 102 51 L 105 51 z M 102 51 L 99 51 L 99 54 L 102 54 L 102 51 z M 99 51 L 99 48 L 96 48 L 96 51 L 99 51 z M 96 51 L 93 51 L 93 54 L 96 54 L 96 51 z M 93 51 L 93 48 L 90 48 L 90 51 L 93 51 z M 90 51 L 87 51 L 87 48 L 84 48 L 84 51 L 81 51 L 81 48 L 78 48 L 78 51 L 78 54 L 81 54 L 84 54 L 87 54 L 90 54 L 90 51 z M 81 48 L 84 48 L 84 45 L 81 45 L 81 48 z M 87 48 L 90 48 L 90 45 L 87 45 L 87 48 z M 93 48 L 96 48 L 96 45 L 93 45 L 93 48 z M 99 48 L 102 48 L 102 45 L 99 45 L 99 48 z M 105 48 L 108 48 L 108 45 L 105 45 L 105 48 z M 111 48 L 114 48 L 114 45 L 111 45 L 111 48 z M 117 48 L 120 48 L 120 45 L 117 45 L 117 48 z M 120 48 L 120 51 L 123 51 L 123 48 L 120 48 z M 123 48 L 126 48 L 126 45 L 123 45 L 123 48 z M 123 51 L 123 54 L 126 54 L 126 51 L 123 51 z M 54 45 L 51 45 L 51 48 L 54 48 L 54 45 z M 51 48 L 48 48 L 48 51 L 51 51 L 51 48 z M 51 51 L 51 54 L 54 54 L 54 51 L 51 51 z M 48 51 L 45 51 L 45 54 L 48 54 L 48 51 z M 45 51 L 45 48 L 42 48 L 42 51 L 45 51 z M 42 51 L 39 51 L 39 54 L 42 54 L 42 51 z M 39 51 L 39 48 L 36 48 L 36 51 L 39 51 z M 36 51 L 33 51 L 33 54 L 36 54 L 36 51 z M 33 51 L 33 48 L 30 48 L 30 51 L 33 51 z M 30 51 L 27 51 L 27 54 L 30 54 L 30 51 z M 27 51 L 27 48 L 24 48 L 24 51 L 27 51 z M 24 51 L 21 51 L 21 54 L 24 54 L 24 51 z M 21 51 L 21 48 L 18 48 L 18 51 L 21 51 z M 18 51 L 15 51 L 15 54 L 18 54 L 18 51 z M 15 51 L 15 48 L 12 48 L 12 51 L 15 51 z M 15 48 L 18 48 L 18 45 L 15 45 L 15 48 z M 21 48 L 24 48 L 24 45 L 21 45 L 21 48 z M 27 48 L 30 48 L 30 45 L 27 45 L 27 48 z M 33 48 L 36 48 L 36 45 L 33 45 L 33 48 z M 39 48 L 42 48 L 42 45 L 39 45 L 39 48 z M 45 48 L 48 48 L 48 45 L 45 45 L 45 48 z M 57 51 L 57 54 L 60 54 L 60 51 L 57 51 z M 63 51 L 63 54 L 66 54 L 69 54 L 72 54 L 75 54 L 75 51 L 72 51 L 69 51 L 66 51 L 63 51 z M 15 57 L 15 60 L 18 60 L 18 57 L 15 57 z M 18 60 L 18 63 L 21 63 L 21 60 L 18 60 z M 21 60 L 24 60 L 24 57 L 21 57 L 21 60 z M 24 60 L 24 63 L 27 63 L 27 60 L 24 60 z M 27 60 L 30 60 L 30 57 L 27 57 L 27 60 z M 30 60 L 30 63 L 33 63 L 33 60 L 30 60 z M 39 57 L 39 60 L 42 60 L 42 57 L 39 57 z M 42 60 L 42 63 L 45 63 L 45 60 L 42 60 z M 45 60 L 48 60 L 48 57 L 45 57 L 45 60 z M 48 60 L 48 63 L 51 63 L 51 60 L 48 60 z M 51 60 L 54 60 L 54 57 L 51 57 L 51 60 z M 39 60 L 36 60 L 36 63 L 39 63 L 39 60 z M 57 57 L 57 60 L 60 60 L 60 57 L 57 57 z M 60 60 L 60 63 L 63 63 L 66 63 L 69 63 L 69 60 L 66 60 L 66 57 L 63 57 L 63 60 L 60 60 z M 69 60 L 72 60 L 72 57 L 69 57 L 69 60 z M 72 60 L 72 63 L 75 63 L 75 60 L 72 60 z M 81 57 L 81 60 L 84 60 L 84 63 L 87 63 L 87 60 L 90 60 L 90 57 L 87 57 L 84 57 L 81 57 z M 90 60 L 90 63 L 93 63 L 93 60 L 90 60 z M 93 60 L 96 60 L 96 57 L 93 57 L 93 60 z M 81 60 L 78 60 L 78 63 L 81 63 L 81 60 z M 99 57 L 99 60 L 102 60 L 102 57 L 99 57 z M 102 60 L 102 63 L 105 63 L 105 60 L 102 60 z M 105 60 L 108 60 L 108 57 L 105 57 L 105 60 z M 108 60 L 108 63 L 111 63 L 111 60 L 108 60 z M 111 60 L 114 60 L 114 57 L 111 57 L 111 60 z M 114 60 L 114 63 L 117 63 L 117 60 L 114 60 z M 18 66 L 18 69 L 21 69 L 21 66 L 18 66 z M 21 69 L 21 72 L 24 72 L 24 69 L 21 69 z M 24 69 L 27 69 L 27 66 L 24 66 L 24 69 z M 27 69 L 27 72 L 30 72 L 30 69 L 27 69 z M 30 69 L 33 69 L 33 66 L 30 66 L 30 69 z M 18 69 L 15 69 L 15 72 L 18 72 L 18 69 z M 36 66 L 36 69 L 39 69 L 39 66 L 36 66 z M 39 69 L 39 72 L 42 72 L 42 69 L 39 69 z M 42 69 L 45 69 L 45 66 L 42 66 L 42 69 z M 45 69 L 45 72 L 48 72 L 48 69 L 45 69 z M 48 69 L 51 69 L 51 66 L 48 66 L 48 69 z M 51 69 L 51 72 L 54 72 L 54 69 L 51 69 z M 60 66 L 60 69 L 63 69 L 63 66 L 60 66 z M 63 69 L 63 72 L 66 72 L 66 69 L 63 69 z M 66 69 L 69 69 L 69 66 L 66 66 L 66 69 z M 69 69 L 69 72 L 72 72 L 72 69 L 69 69 z M 72 69 L 75 69 L 75 66 L 72 66 L 72 69 z M 60 69 L 57 69 L 57 72 L 60 72 L 60 69 z M 78 66 L 78 69 L 81 69 L 81 66 L 78 66 z M 81 69 L 81 72 L 84 72 L 84 69 L 81 69 z M 84 69 L 87 69 L 87 66 L 84 66 L 84 69 z M 87 69 L 87 72 L 90 72 L 90 69 L 87 69 z M 90 69 L 93 69 L 93 66 L 90 66 L 90 69 z M 93 69 L 93 72 L 96 72 L 96 69 L 93 69 z M 102 66 L 102 69 L 105 69 L 105 72 L 108 72 L 108 69 L 111 69 L 111 66 L 108 66 L 105 66 L 102 66 z M 111 69 L 111 72 L 114 72 L 114 69 L 111 69 z M 114 69 L 117 69 L 117 66 L 114 66 L 114 69 z M 102 69 L 99 69 L 99 72 L 102 72 L 102 69 z M 15 75 L 15 78 L 18 78 L 18 75 L 15 75 z M 18 78 L 18 81 L 21 81 L 21 78 L 18 78 z M 21 78 L 24 78 L 24 75 L 21 75 L 21 78 z M 24 78 L 24 81 L 27 81 L 27 78 L 24 78 z M 27 78 L 30 78 L 30 75 L 27 75 L 27 78 z M 30 78 L 30 81 L 33 81 L 33 78 L 30 78 z M 39 75 L 39 78 L 42 78 L 42 75 L 39 75 z M 42 78 L 42 81 L 45 81 L 45 78 L 42 78 z M 39 78 L 36 78 L 36 81 L 39 81 L 39 78 z M 57 75 L 57 78 L 60 78 L 60 75 L 57 75 z M 60 78 L 60 81 L 63 81 L 66 81 L 66 78 L 66 75 L 63 75 L 63 78 L 60 78 z M 57 78 L 54 78 L 54 81 L 57 81 L 57 78 z M 81 75 L 81 78 L 84 78 L 84 75 L 81 75 z M 84 78 L 84 81 L 87 81 L 87 78 L 84 78 z M 87 78 L 90 78 L 90 75 L 87 75 L 87 78 z M 90 78 L 90 81 L 93 81 L 93 78 L 90 78 z M 93 78 L 96 78 L 96 75 L 93 75 L 93 78 z M 81 78 L 78 78 L 78 81 L 81 81 L 81 78 z M 99 75 L 99 78 L 102 78 L 102 75 L 99 75 z M 102 78 L 102 81 L 105 81 L 108 81 L 111 81 L 111 78 L 108 78 L 108 75 L 105 75 L 105 78 L 102 78 z M 111 78 L 114 78 L 114 75 L 111 75 L 111 78 z M 114 78 L 114 81 L 117 81 L 117 78 L 114 78 z "
     id="rect3376" />
  <path
     style="fill:#808080"
     d="M 18 9 L 18 12 L 21 12 L 24 12 L 27 12 L 30 12 L 33 12 L 36 12 L 39 12 L 42 12 L 45 12 L 48 12 L 51 12 L 54 12 L 57 12 L 57 9 L 54 9 L 51 9 L 48 9 L 45 9 L 42 9 L 39 9 L 36 9 L 33 9 L 30 9 L 27 9 L 24 9 L 21 9 L 18 9 z M 57 12 L 57 15 L 60 15 L 60 12 L 57 12 z M 60 15 L 60 18 L 63 18 L 63 15 L 60 15 z M 63 18 L 63 21 L 66 21 L 66 18 L 63 18 z M 66 21 L 66 24 L 69 24 L 69 21 L 66 21 z M 69 24 L 69 27 L 72 27 L 72 24 L 69 24 z M 72 27 L 72 30 L 75 30 L 78 30 L 81 30 L 84 30 L 87 30 L 90 30 L 93 30 L 96 30 L 99 30 L 102 30 L 105 30 L 108 30 L 111 30 L 114 30 L 117 30 L 120 30 L 123 30 L 126 30 L 129 30 L 132 30 L 135 30 L 138 30 L 138 27 L 135 27 L 132 27 L 129 27 L 126 27 L 123 27 L 120 27 L 117 27 L 114 27 L 111 27 L 108 27 L 105 27 L 102 27 L 99 27 L 96 27 L 93 27 L 90 27 L 87 27 L 84 27 L 81 27 L 78 27 L 75 27 L 72 27 z M 18 12 L 15 12 L 15 15 L 18 15 L 18 12 z M 15 15 L 12 15 L 12 18 L 15 18 L 15 15 z M 12 18 L 9 18 L 9 21 L 12 21 L 12 18 z M 9 21 L 6 21 L 6 24 L 9 24 L 9 21 z M 6 24 L 3 24 L 3 27 L 6 27 L 6 24 z M 3 27 L 0 27 L 0 30 L 0 33 L 0 36 L 0 39 L 0 42 L 0 45 L 0 48 L 0 51 L 0 54 L 0 57 L 0 60 L 0 63 L 0 66 L 0 69 L 0 72 L 0 75 L 0 78 L 0 81 L 0 84 L 0 87 L 0 90 L 0 93 L 0 96 L 0 99 L 0 102 L 0 105 L 0 108 L 0 111 L 0 114 L 0 117 L 0 120 L 0 123 L 0 126 L 0 129 L 3 129 L 3 126 L 3 123 L 3 120 L 3 117 L 3 114 L 3 111 L 3 108 L 3 105 L 3 102 L 3 99 L 3 96 L 3 93 L 3 90 L 3 87 L 3 84 L 3 81 L 3 78 L 3 75 L 3 72 L 3 69 L 3 66 L 3 63 L 3 60 L 3 57 L 3 54 L 3 51 L 3 48 L 3 45 L 3 42 L 3 39 L 3 36 L 3 33 L 3 30 L 3 27 z "
     id="rect3382" />
  <path
     style="fill:#808000"
     d="M 138 33 L 138 36 L 138 39 L 138 42 L 138 45 L 138 48 L 138 51 L 138 54 L 138 57 L 138 60 L 138 63 L 138 66 L 138 69 L 138 72 L 138 75 L 138 78 L 138 81 L 138 84 L 138 87 L 138 90 L 138 93 L 138 96 L 138 99 L 138 102 L 138 105 L 138 108 L 138 111 L 138 114 L 138 117 L 138 120 L 138 123 L 138 126 L 135 126 L 132 126 L 129 126 L 126 126 L 123 126 L 120 126 L 117 126 L 114 126 L 111 126 L 108 126 L 105 126 L 102 126 L 99 126 L 96 126 L 93 126 L 90 126 L 87 126 L 84 126 L 81 126 L 78 126 L 75 126 L 72 126 L 69 126 L 66 126 L 63 126 L 60 126 L 57 126 L 54 126 L 51 126 L 48 126 L 45 126 L 42 126 L 39 126 L 36 126 L 33 126 L 30 126 L 27 126 L 24 126 L 21 126 L 18 126 L 15 126 L 12 126 L 9 126 L 6 126 L 3 126 L 3 129 L 6 129 L 9 129 L 12 129 L 15 129 L 18 129 L 21 129 L 24 129 L 27 129 L 30 129 L 33 129 L 36 129 L 39 129 L 42 129 L 45 129 L 48 129 L 51 129 L 54 129 L 57 129 L 60 129 L 63 129 L 66 129 L 69 129 L 72 129 L 75 129 L 78 129 L 81 129 L 84 129 L 87 129 L 90 129 L 93 129 L 96 129 L 99 129 L 102 129 L 105 129 L 108 129 L 111 129 L 114 129 L 117 129 L 120 129 L 123 129 L 126 129 L 129 129 L 132 129 L 135 129 L 138 129 L 141 129 L 141 126 L 141 123 L 141 120 L 141 117 L 141 114 L 141 111 L 141 108 L 141 105 L 141 102 L 141 99 L 141 96 L 141 93 L 141 90 L 141 87 L 141 84 L 141 81 L 141 78 L 141 75 L 141 72 L 141 69 L 141 66 L 141 63 L 141 60 L 141 57 L 141 54 L 141 51 L 141 48 L 141 45 L 141 42 L 141 39 L 141 36 L 141 33 L 138 33 z "
     id="rect3474" />
  <path
     style="fill:#000000"
     d="M 138 30 L 138 33 L 141 33 L 141 30 L 138 30 z M 141 33 L 141 36 L 141 39 L 141 42 L 141 45 L 141 48 L 141 51 L 141 54 L 141 57 L 141 60 L 141 63 L 141 66 L 141 69 L 141 72 L 141 75 L 141 78 L 141 81 L 141 84 L 141 87 L 141 90 L 141 93 L 141 96 L 141 99 L 141 102 L 141 105 L 141 108 L 141 111 L 141 114 L 141 117 L 141 120 L 141 123 L 141 126 L 141 129 L 144 129 L 144 126 L 144 123 L 144 120 L 144 117 L 144 114 L 144 111 L 144 108 L 144 105 L 144 102 L 144 99 L 144 96 L 144 93 L 144 90 L 144 87 L 144 84 L 144 81 L 144 78 L 144 75 L 144 72 L 144 69 L 144 66 L 144 63 L 144 60 L 144 57 L 144 54 L 144 51 L 144 48 L 144 45 L 144 42 L 144 39 L 144 36 L 144 33 L 141 33 z M 141 129 L 138 129 L 135 129 L 132 129 L 129 129 L 126 129 L 123 129 L 120 129 L 117 129 L 114 129 L 111 129 L 108 129 L 105 129 L 102 129 L 99 129 L 96 129 L 93 129 L 90 129 L 87 129 L 84 129 L 81 129 L 78 129 L 75 129 L 72 129 L 69 129 L 66 129 L 63 129 L 60 129 L 57 129 L 54 129 L 51 129 L 48 129 L 45 129 L 42 129 L 39 129 L 36 129 L 33 129 L 30 129 L 27 129 L 24 129 L 21 129 L 18 129 L 15 129 L 12 129 L 9 129 L 6 129 L 3 129 L 3 132 L 6 132 L 9 132 L 12 132 L 15 132 L 18 132 L 21 132 L 24 132 L 27 132 L 30 132 L 33 132 L 36 132 L 39 132 L 42 132 L 45 132 L 48 132 L 51 132 L 54 132 L 57 132 L 60 132 L 63 132 L 66 132 L 69 132 L 72 132 L 75 132 L 78 132 L 81 132 L 84 132 L 87 132 L 90 132 L 93 132 L 96 132 L 99 132 L 102 132 L 105 132 L 108 132 L 111 132 L 114 132 L 117 132 L 120 132 L 123 132 L 126 132 L 129 132 L 132 132 L 135 132 L 138 132 L 141 132 L 141 129 z "
     id="rect3568" />
  <path
     style="fill:#000000"
     d="M 39.343921,82.972921 56.162444,81.145336"
     id="path236" />
  <path
     style="fill:#000000;stroke-width:0.107864"
     d="M 24.053615,90.012296 V 87.099975 H 25.563708 27.0738 V 85.53595 83.971926 H 19.57727 12.08074 V 69.032797 54.093668 h 20.979498 20.979499 v -4.530277 -4.530277 h 11.972875 11.972876 v 4.530277 4.530277 h 17.85145 17.851452 v 1.402229 1.402229 h -7.38867 -7.388665 v 3.074117 3.074116 h 7.388665 7.38867 v 1.456161 1.45616 h -7.39035 -7.390345 l 0.02865,3.047151 0.02865,3.047151 6.040375,0.0042 c 3.3222,0.0023 6.63497,0.01444 7.3617,0.02697 l 1.32133,0.02277 v 1.402229 1.402228 h -7.38867 -7.388667 v 3.074117 3.074117 h 7.388667 7.38867 v 1.45616 1.456161 h -7.38867 -7.388667 v 2.966253 2.966253 h -1.456161 -1.45616 v 1.510092 1.510093 h -4.476346 -4.476345 v -2.912321 -2.912321 h 1.510092 1.510093 V 85.53595 83.971926 h -27.073801 -27.0738 v 2.963209 2.963209 l -1.483126,0.03001 -1.483127,0.03001 -0.03001,1.483126 -0.03001,1.483127 h -4.41937 -4.41937 z m 8.952691,-12.026808 v -3.074117 h -9.006623 -9.006622 v 3.074117 3.074117 h 9.006622 9.006623 z m 12.08074,0 v -3.074117 h -4.584209 -4.58421 v 3.074117 3.074117 h 4.58421 4.584209 z m 20.925566,0 v -3.074117 h -4.530277 -4.530277 v 1.510093 1.510092 h -1.510093 -1.510092 v 1.564025 1.564024 h 6.04037 6.040369 z m 30.040054,0 v -3.020185 l -9.033589,-0.02758 -9.033589,-0.02758 v 1.510708 1.510708 h -1.510092 -1.510093 v 1.564555 1.564556 l 10.543681,-0.0275 10.543682,-0.0275 z M 31.52318,72.014508 33.006306,71.99905 V 68.978865 65.95868 h -9.006623 -9.006622 v 3.002208 c 0,1.651215 0.02215,3.024363 0.04923,3.051442 0.04299,0.04299 12.408474,0.04462 16.480885,0.0022 z M 54.01445,69.005831 54.0431,65.95868 H 44.980864 35.91863 v 3.017302 3.017301 l 1.590991,0.02985 c 0.875044,0.01642 4.940159,0.02985 9.033588,0.02985 h 7.442599 z m 19.521659,3.008443 1.537058,-0.01522 V 68.978865 65.95868 h -9.060555 -9.060554 v 3.002208 c 0,1.651215 0.02237,3.024575 0.0497,3.051913 0.04318,0.04318 12.214139,0.04427 16.534347,0.0015 z m 22.516557,-2.981477 v -3.020185 l -9.033589,-0.02758 -9.033589,-0.02758 v 3.017839 3.017839 l 1.537059,0.02993 c 0.845382,0.01646 4.910497,0.02993 9.033588,0.02993 h 7.496531 z m -63.04636,-9.060554 v -3.074117 h -9.006623 -9.006622 v 3.074117 3.074116 h 9.006622 9.006623 z m 21.033431,0 v -3.074117 h -9.060555 -9.060555 v 3.074117 3.074116 h 9.060555 9.060555 z m 21.03343,0 v -3.074117 h -9.060555 -9.060554 v 3.074117 3.074116 h 9.060554 9.060555 z m 20.979499,0 v -3.020185 l -9.033589,-0.02758 -9.033589,-0.02758 v 3.075349 3.075348 l 9.033589,-0.02758 9.033589,-0.02758 z M 75.073167,52.529644 V 50.96562 h -9.060555 -9.060554 v 1.564024 1.564024 h 9.060554 9.060555 z"
     id="path372" />
  <path
     style="fill:#000000;stroke-width:0.305085"
     d="m 113.79661,82.372881 v -1.372882 h 1.67797 1.67796 v -3.050847 -3.050847 h -1.67796 -1.67797 v -1.372882 -1.372881 h 1.67797 1.67796 v -3.20339 -3.20339 h -1.67796 -1.67797 V 64.372881 63 h 1.67797 1.67796 v -3.050848 -3.050847 h -1.67796 -1.67797 v -1.372882 -1.372881 h 3.05085 3.05084 v 14.79661 14.79661 h -3.05084 -3.05085 z"
     id="path374" />
  <path
     style="fill:#000000;stroke-width:0.00674148"
     d="M 117.0052,76.576518 V 74.99564 h -2.88199 -2.88198 v -0.04045 -0.04045 h 1.22358 1.22358 v -1.405599 -1.4056 l -0.0253,-6e-5 c -0.0139,-3.4e-5 -0.27404,-0.0046 -0.57808,-0.01015 -0.44996,-0.0082 -1.57078,-0.02283 -1.79155,-0.02337 l -0.0523,-1.26e-4 v -0.03371 -0.03371 h 2.88198 2.88199 V 71.67883 71.355239 h 0.0708 0.0708 v 0.397747 0.397748 h -1.67526 -1.67526 v 1.375263 1.375262 h 1.67526 1.67526 v 1.628069 1.628068 h -0.0708 -0.0708 z"
     id="path376" />
  <path
     style="fill:#000000;stroke-width:0.0095339"
     d="m 109.04396,72.061444 c -0.85209,-0.0034 -2.34188,-0.0069 -3.31064,-0.0076 l -1.76139,-0.0014 v -0.02384 -0.02383 h 3.63241 3.63242 v 0.03337 0.03337 l -0.32177,-0.0019 c -0.17697,-0.0011 -1.01894,-0.0047 -1.87103,-0.0081 z"
     id="path378" />
  <path
     style="fill:#000000;stroke-width:0.0095339"
     d="m 103.97193,74.955508 v -0.0429 h 3.63241 3.63242 v 0.0429 0.0429 h -3.63242 -3.63241 z"
     id="path380" />
  <path
     style="fill:#000000;stroke-width:0.00476695"
     d="m 117.00238,68.625 v -2.628973 h -4.38082 -4.38083 v -0.01668 -0.01668 h 2.72431 2.72431 V 64.50398 63.045294 h -2.72431 -2.72431 v -0.02145 -0.02145 h 2.77675 2.77675 v 1.372882 1.372881 h 1.67796 1.67797 v 2.752913 2.752913 h -0.0739 -0.0739 z"
     id="path382" />
  <path
     style="fill:#000000;stroke-width:0.00476695"
     d="m 119.90069,66.599046 v -4.654925 h 0.0477 0.0477 v 4.654925 4.654926 h -0.0477 -0.0477 z"
     id="path384" />
  <path
     style="fill:#000000;stroke-width:0.00476695"
     d="m 117.00238,60.478284 v -2.519333 h 0.0739 0.0739 v 2.519333 2.519332 h -0.0739 -0.0739 z"
     id="path386" />
  <path
     style="fill:#000000;stroke-width:0.00476695"
     d="m 119.90069,59.951536 v -1.992585 h 0.0477 0.0477 v 1.992585 1.992585 h -0.0477 -0.0477 z"
     id="path388" />
  <path
     style="fill:#000000;stroke-width:0.00476695"
     d="m 119.90069,56.087924 v -1.871028 h 0.0477 0.0477 v 1.871028 1.871027 h -0.0477 -0.0477 z"
     id="path390" />
  <path
     style="fill:#000000;stroke-width:0.00476695"
     d="m 117.00238,57.477489 v -0.481462 h -4.10672 -4.10673 v -0.04767 -0.04767 h 2.45021 2.45021 v -1.341896 -1.341896 h 0.0524 0.0524 v 1.341896 1.341896 h 1.67796 1.67797 v 0.529132 0.529131 h -0.0739 -0.0739 z"
     id="path392" />
  <path
     style="fill:#000000;stroke-width:0.00476695"
     d="m 113.68935,54.154926 v -0.06197 h -2.90784 -2.90783 v -0.04529 -0.04529 h 6.06117 6.06118 v 0.107257 0.107256 h -0.0477 -0.0477 v -0.03337 -0.03337 h -3.05323 -3.05323 v 0.03337 0.03337 h -0.0524 -0.0524 z"
     id="path394" />
  <path
     style="fill:#000000;stroke-width:0.00476695"
     d="m 100.07018,56.948358 v -0.04767 h 4.35937 4.35938 v 0.04767 0.04767 h -4.35938 -4.35937 z"
     id="path396" />
  <path
     style="fill:#000000;stroke-width:0.0095339"
     d="m 86.85858,54.047669 v -0.0429 h 10.506356 10.506354 v 0.0429 0.0429 H 97.364936 86.85858 Z"
     id="path398" />
  <path
     style="fill:#000000;stroke-width:0.0095339"
     d="m 98.918962,59.972987 v -3.069915 h 0.572033 0.572035 v 0.04767 0.04767 h -0.533899 -0.533898 v 3.003178 3.003178 h 4.619177 c 4.61281,0 4.61917,2.8e-5 4.61917,0.01907 0,0.01904 -0.006,0.01907 -4.65731,0.01907 h -4.657308 z"
     id="path400" />
  <path
     style="fill:#000000;stroke-width:0.0095339"
     d="m 96.001589,59.992055 v -2.993644 h -9.004767 -9.004767 v -0.04903 -0.04903 l 2.061705,0.0065 c 1.133938,0.0036 3.280138,0.01047 4.769333,0.01531 1.489195,0.0048 4.481647,0.01336 6.649894,0.01893 2.168247,0.0056 4.084918,0.01265 4.259269,0.01575 l 0.317002,0.0056 v 3.011608 3.011608 h -0.02383 -0.02383 z"
     id="path402" />
  <path
     style="fill:#000000;stroke-width:0.0095339"
     d="m 77.992055,54.047669 v -0.0429 h 4.433262 4.433263 v 0.0429 0.0429 h -4.433263 -4.433262 z"
     id="path404" />
  <path
     style="fill:#000000;stroke-width:0.0095339"
     d="m 57.799258,54.047669 v -0.0429 h 8.604343 8.604344 v -1.506356 -1.506356 h -8.604344 c -5.729872,0 -8.604343,-0.0032 -8.604343,-0.0095 0,-0.0063 2.884004,-0.0095 8.632945,-0.0095 h 8.632945 v 1.558792 1.558793 h -8.632945 -8.632945 z"
     id="path406" />
  <path
     style="fill:#000000;stroke-width:0.0095339"
     d="m 57.799258,63.023835 c 0,-0.01905 0.0064,-0.01907 8.604343,-0.01907 h 8.604344 v -3.003178 -3.003178 h -8.604344 -8.604343 v -0.04767 -0.04767 h 8.632945 8.632945 v 3.069915 3.069915 h -8.632945 c -8.626589,0 -8.632945,-1.4e-5 -8.632945,-0.01907 z"
     id="path410" />
  <path
     style="fill:#000000;stroke-width:0.0095339"
     d="m 49.847987,54.047669 v -0.0429 h 2.07839 2.07839 v -4.5 -4.5 h 11.993644 c 10.654661,0 11.993644,0.0016 11.993644,0.0143 0,0.0127 -1.337394,0.0143 -11.979343,0.0143 H 54.033368 v 4.528602 4.528602 h -2.09269 -2.092691 z"
     id="path412" />
  <path
     style="fill:#000000;stroke-width:0.0095339"
     d="m 54.042902,59.086335 v -2.192797 h -6.454449 -6.454449 v -1.396716 -1.396716 h 6.454449 6.454449 l -0.0024,-4.535752 -0.0024,-4.535752 -0.0024,4.530985 -0.0024,4.530985 h -2.09268 -2.092681 v -0.0429 -0.0429 h 2.07839 2.07839 v -4.5 -4.5 h 6.724578 c 3.698518,0 9.075279,0.0032 11.948358,0.0071 l 5.22378,0.0072 -3.856462,0.0048 -3.856462,0.0048 3.896981,0.0024 3.896981,0.0024 v 4.533369 4.533369 h 0.295551 0.295551 v 1.396716 1.396716 h -0.295551 -0.295551 v 2.192797 2.192796 h -1.45392 -1.453919 v -2.192796 -2.192797 h -9.06197 -9.061971 v 2.192797 2.192796 h -1.453919 -1.45392 z m 21.03178,-6.554556 v -1.568326 h -9.06197 -9.061971 v 1.568326 1.568327 h 9.061971 9.06197 z"
     id="path414" />
  <path
     style="fill:#000000;stroke-width:0.0095339"
     d="m 56.960275,52.531779 v -1.558792 h 0.429026 c 0.279661,0 0.429025,0.0033 0.429025,0.0095 0,0.0062 -0.143008,0.0095 -0.409958,0.0095 h -0.409957 v 1.506356 1.506356 h 0.400424 0.400423 v 0.0429 0.0429 h -0.419491 -0.419492 z"
     id="path416" />
  <path
     style="fill:#000000;stroke-width:0.00390625"
     d="m 57.394531,50.993033 c 0.216992,-0.002 0.846289,-0.0031 1.398438,-0.0026 0.552148,5.7e-4 2.466406,0.0022 4.253906,0.0036 l 3.25,0.0026 -4.648438,-4e-6 c -3.106535,-2e-6 -4.51757,-0.0012 -4.253906,-0.0036 z"
     id="path418" />
  <path
     style="fill:#000000;stroke-width:0.00390625"
     d="m 57.863281,50.982198 c 0.0086,-0.0018 0.02002,-0.0031 0.02539,-0.003 0.0089,2.16e-4 0.0087,5.02e-4 -0.002,0.0032 -0.0064,0.0016 -0.01787,0.003 -0.02539,0.003 l -0.01367,1.3e-5 0.01563,-0.0032 z"
     id="path420" />
  <path
     style="fill:#000000;stroke-width:0.00390625"
     d="m 56.95605,52.530273 -9.72e-4,-1.563476 4.670899,7.14e-4 4.670898,7.14e-4 -2.998047,0.0026 c -1.648926,0.0014 -3.563183,0.003 -4.253906,0.0035 -0.690723,5.4e-4 -1.442625,-2.81e-4 -1.670894,-0.0018 l -0.415034,-0.0028 -9.86e-4,1.562035 -9.86e-4,1.562034 z"
     id="path422" />
  <path
     style="fill:#000000;stroke-width:0.0110485"
     d="m 35.924339,59.971494 v -3.065971 h 9.054281 9.054282 v 3.065971 3.065971 H 44.97862 35.924339 Z m 18.086466,0.02762 V 56.993911 H 45.000717 35.99063 v 3.005204 3.005204 h 9.010087 9.010088 z"
     id="path424" />
  <path
     style="fill:#000000;stroke-width:0.0110485"
     d="m 35.010072,54.090907 c 2.720842,-0.0015 7.173129,-0.0015 9.893971,0 2.720842,0.0015 0.494698,0.0028 -4.946986,0.0028 -5.441683,0 -7.667827,-0.0013 -4.946985,-0.0028 z"
     id="path426" />
  <path
     style="fill:#000000;stroke-width:0.00390625"
     d="m 44.168945,54.088867 -1.565429,-9.86e-4 v -0.04296 -0.04296 h 3.621093 3.621094 v 0.04492 0.04492 l -2.055664,-9.72e-4 c -1.130615,-5.34e-4 -2.760107,-0.0014 -3.621094,-0.002 z"
     id="path428" />
  <path
     style="fill:#000000;stroke-width:0.0078125"
     d="m 56.957031,59.683594 v -2.78125 H 57.375 57.792969 v 0.04687 0.04687 h -0.398438 -0.398437 v 2.734375 2.734375 h -0.01953 -0.01953 z"
     id="path430" />
  <path
     style="fill:#000000;stroke-width:0.0078125"
     d="m 20.300781,54.046875 v -0.04297 h 11.148438 11.148437 v 0.04297 0.04297 H 31.449219 20.300781 Z"
     id="path432" />
  <path
     style="fill:#000000;stroke-width:0.0078125"
     d="m 20.300781,56.949219 v -0.04687 h 6.351563 6.351562 v 0.04687 0.04687 h -6.351562 -6.351563 z"
     id="path434" />
  <path
     style="fill:#000000;stroke-width:0.0078125"
     d="m 14.996094,56.949219 v -0.04687 h 2.652343 2.652344 v 0.04687 0.04687 h -2.652344 -2.652343 z"
     id="path436" />
  <path
     style="fill:#000000;stroke-width:0.0078125"
     d="m 12.003906,58.675781 v -4.671875 h 4.148438 4.148437 v 0.04297 0.04297 H 16.1875 12.074219 v 4.628906 4.628906 h -0.03516 -0.03516 z"
     id="path438" />
  <path
     style="fill:#000000;stroke-width:0.00552427"
     d="m 12.00148,65.959804 v -2.610218 h 0.03867 0.03867 v 2.610218 2.610219 h -0.03867 -0.03867 z"
     id="path440" />
  <path
     style="fill:#000000;stroke-width:0.00552427"
     d="m 14.995636,63.023654 v -0.0221 h 6.827999 6.828 v 0.0221 0.0221 h -6.828 -6.827999 z"
     id="path442" />
  <path
     style="fill:#000000;stroke-width:0.00552427"
     d="m 15.748318,65.997093 c 0.412456,-7.81e-4 1.087383,-7.81e-4 1.499839,0 0.412456,7.82e-4 0.07499,0.0014 -0.749919,0.0014 -0.824912,0 -1.162376,-6.39e-4 -0.74992,-0.0014 z"
     id="path444" />
  <path
     style="fill:#000000;stroke-width:0.00552427"
     d="m 14.995636,65.979139 v -0.01657 h 7.192601 7.192602 v 0.01657 0.01657 h -7.192602 -7.192601 z"
     id="path446" />
  <path
     style="fill:#000000;stroke-width:0.00552427"
     d="m 28.651635,63.023654 v -0.0221 h 2.176563 2.176563 v 0.0221 0.0221 h -2.176563 -2.176563 z"
     id="path448" />
  <path
     style="fill:#000000;stroke-width:0.00552427"
     d="m 29.380839,65.979139 v -0.01657 h 1.811961 1.811961 v 0.01657 0.01657 H 31.1928 29.380839 Z"
     id="path450" />
  <path
     style="fill:#000000;stroke-width:0.00552427"
     d="m 35.921577,68.257901 v -2.295334 h 5.670665 5.670665 v 0.01657 0.01657 h -5.631995 -5.631995 v 2.278762 2.278762 h -0.03867 -0.03867 z"
     id="path452" />
  <path
     style="fill:#000000;stroke-width:0.00390625"
     d="m 33.008795,67.143555 -9.83e-4,-1.186524 -2.186523,-9.8e-4 -2.186523,-9.8e-4 V 64.50195 63.048828 h 2.1875 2.1875 V 61.875 60.701172 h 1.453125 1.453125 V 61.875 63.048828 h 4.029296 4.029297 v 1.453123 1.453123 l -4.02832,9.79e-4 -4.02832,9.78e-4 -9.83e-4,1.186524 -9.83e-4,1.186523 h -1.453112 -1.453112 z"
     id="path454" />
  <path
     style="fill:#000000;stroke-width:0.00390625"
     d="m 37.932617,63.045898 c 1.108057,-5.41e-4 2.92124,-5.41e-4 4.029297,0 1.108057,5.42e-4 0.201465,9.85e-4 -2.014648,9.85e-4 -2.216114,0 -3.122705,-4.43e-4 -2.014649,-9.85e-4 z"
     id="path456" />
  <path
     style="fill:#000000;stroke-width:0.00390625"
     d="m 35.927734,61.869141 v -1.167969 h 0.03125 0.03125 v 1.152344 1.152343 h 3.992188 3.992187 v 0.01563 0.01563 h -4.023437 -4.023438 z"
     id="path458" />
  <path
     style="fill:#000000;stroke-width:0.00390625"
     d="m 33.009766,67.145179 v -1.184898 l -0.875977,-0.0026 c -0.481787,-0.0014 -1.466162,-0.0026 -2.1875,-0.0026 l -1.311523,-1e-6 V 64.501955 63.04883 h 2.1875 2.1875 V 61.875 60.701172 h 1.453125 1.453125 V 61.875 63.048828 h 4.029296 4.029297 v 1.453125 1.453125 h -2.417318 c -1.329526,0 -3.142709,0.0012 -4.029297,0.0026 l -1.611978,0.0026 v 1.184898 1.184897 h -1.453125 -1.453125 z"
     id="path460" />
  <path
     style="fill:#000000;stroke-width:0.0078125"
     d="m 18.691406,74.957031 v -0.03906 h 7.15625 7.15625 v 0.03906 0.03906 h -7.15625 -7.15625 z"
     id="path462" />
  <path
     style="fill:#000000;stroke-width:0.0078125"
     d="m 35.925781,77.988281 v -3.070312 h 4.578125 4.578125 v 3.070312 3.070313 H 40.503906 35.925781 Z M 45.003906,78 V 74.996094 H 40.5 35.996094 V 78 81.003906 H 40.5 45.003906 Z"
     id="path464" />
  <path
     style="fill:#000000;stroke-width:0.0078125"
     d="m 35.925781,71.273437 v -0.714843 h 0.03516 0.03516 v 0.714843 0.714844 h -0.03516 -0.03516 z"
     id="path466" />
  <path
     style="fill:#000000;stroke-width:0.0078125"
     d="m 22.267578,81.060547 c 1.969043,-0.0011 5.191113,-0.0011 7.160156,0 1.969043,0.0011 0.358008,0.002 -3.580078,0.002 -3.938086,0 -5.549121,-8.87e-4 -3.580078,-0.002 z"
     id="path468" />
  <path
     style="fill:#000000;stroke-width:0.0078125"
     d="m 18.691406,81.03125 v -0.02734 h 7.15625 7.15625 v 0.02734 0.02734 h -7.15625 -7.15625 z"
     id="path470" />
  <path
     style="fill:#000000;stroke-width:0.00390625"
     d="m 35.919922,86.009766 v -2.035157 h 3.814453 3.814453 v 0.01172 0.01172 h -3.775391 -3.77539 v 2.023437 2.023438 h -0.03906 -0.03906 z"
     id="path472" />
  <path
     style="fill:#000000;stroke-width:0.00552427"
     d="m 32.89864,92.751149 c 8.81e-4,-0.04178 0.01391,-0.686029 0.02895,-1.43166 0.01504,-0.745631 0.02799,-1.356321 0.02878,-1.357088 0.0016,-0.0016 0.702601,-0.01604 1.987412,-0.04102 0.475501,-0.0092 0.890029,-0.01825 0.921172,-0.02001 l 0.05662,-0.0032 v -0.924784 -0.924784 h 0.03867 0.03867 v 0.975034 0.975034 h -1.49984 -1.49984 v 1.414213 1.414214 l -0.0511,5e-6 -0.0511,6e-6 0.0016,-0.07597 z"
     id="path474" />
  <path
     style="fill:#000000;stroke-width:0.00552427"
     d="m 24.000199,90.001445 v -2.996907 l 1.50122,-0.0014 1.501221,-0.0014 0.0014,-0.954318 0.0014,-0.954317 h 0.03313 0.03313 v 1.002655 1.002655 h -1.510889 -1.510888 v 2.914054 2.914053 h 4.422179 4.42218 V 92.8768 92.82708 h 0.05248 0.05248 v 0.08563 0.08563 h -4.499519 -4.499519 z"
     id="path476" />
  <path
     style="fill:#000000;stroke-width:0.0110485"
     d="m 27.008164,84.543454 v -0.546902 h -7.501961 -7.501961 v -2.751088 -2.751087 h 0.03315 0.03315 v 2.740039 2.740038 h 7.496436 7.496437 v 0.557952 0.557951 h -0.02762 -0.02762 z"
     id="path478" />
  <path
     style="fill:#000000;stroke-width:0.0078125"
     d="m 53.933594,79.496094 v -1.5625 h 1.511718 1.511719 v -1.507813 -1.507812 h 4.527344 4.527344 v 3.070312 3.070313 H 59.972656 53.933594 Z M 66.003906,78 V 74.996094 H 61.5 56.996094 v 1.5 1.5 h -1.5 -1.5 V 79.5 81.003906 H 60 66.003906 Z"
     id="path480" />
  <path
     style="fill:#000000;stroke-width:0.00552427"
     d="m 61.084635,72.040966 c -1.153163,-0.0015 -3.196507,-0.01173 -3.643258,-0.01831 -0.36283,-0.0053 -0.439179,-0.0083 -0.439179,-0.01719 0,-0.0028 3.674861,-0.0045 8.699347,-0.004 4.784641,5.05e-4 8.529061,0.0028 8.320934,0.005 -1.53962,0.01671 -3.401545,0.02589 -6.640175,0.03273 -2.27824,0.0048 -3.568207,0.0052 -6.297669,0.0017 z"
     id="path482" />
  <path
     style="fill:#000000;stroke-width:0.00390625"
     d="m 74.966797,78.144531 v -0.21289 h 1.509765 1.509766 v -1.509766 -1.509766 l 0.08301,1.6e-5 c 0.195079,3.8e-5 7.698192,0.02324 8.304687,0.02568 l 0.666993,0.0027 v 0.02878 0.02878 h -4.521485 -4.521484 v 1.5 1.5 h -1.5 -1.5 v 0.179687 0.179688 h -0.01563 -0.01563 z"
     id="path484" />
  <path
     style="fill:#000000;stroke-width:0.00390625"
     d="m 70.943359,74.273918 v -2.239753 l 0.389649,-0.0026 c 0.214306,-0.0014 0.667383,-0.0043 1.006836,-0.0063 0.663053,-0.0041 1.155264,-0.0084 2.477539,-0.02185 l 0.258789,-0.0026 v -1.558007 -1.558006 h 1.453125 1.453125 v 1.554267 1.554268 l 0.06738,0.0023 c 0.03706,0.0013 0.121875,0.0033 0.188476,0.0044 0.0666,0.0012 0.208985,0.0038 0.316406,0.006 0.805785,0.01593 1.022354,0.01978 1.304688,0.02319 0.708776,0.0086 2.783021,0.01762 5.05957,0.02208 l 1.364258,0.0027 1e-6,1.439817 2e-6,1.439818 -0.262697,-9.53e-4 c -0.144483,-5.24e-4 -1.735743,-0.0053 -3.536134,-0.01058 -1.800391,-0.0053 -3.549854,-0.01079 -3.887695,-0.01221 l -0.614258,-0.0026 v 0.803202 0.803202 h -3.519531 -3.519532 z"
     id="path490" />
  <path
     style="fill:#000000;stroke-width:0.00390625"
     d="m 75.001953,70.310547 v -1.6875 h 0.03516 0.03516 v 1.6875 1.6875 h -0.03516 -0.03516 z"
     id="path492" />
  <path
     style="fill:#000000;stroke-width:0.0078125"
     d="m 66.019531,75.15625 v -0.246094 h -2.617187 -2.617188 l 3e-6,-1.43164 3e-6,-1.431641 4.099606,-0.0013 c 4.659953,-0.0014 7.155889,-0.01139 9.69531,-0.03869 l 0.494141,-0.0053 v -3.022293 -3.022295 h -7.144532 -7.144531 v -1.453125 -1.453125 h 7.144531 7.144532 v -1.453125 -1.453125 h 1.453125 1.453125 v 1.454073 1.454072 l 1.451172,-0.0053 c 1.98676,-0.0073 11.286086,-0.03557 11.699218,-0.03562 l 0.333985,-4.1e-5 v 1.492798 1.492799 l -0.970703,-0.0047 c -0.533887,-0.0026 -2.197657,-0.0082 -3.697266,-0.01256 -1.499609,-0.0043 -3.770703,-0.01123 -5.046875,-0.01536 -1.276172,-0.0041 -2.646387,-0.0075 -3.044922,-0.0076 l -0.724609,-7.5e-5 v 3.018662 3.018662 l 0.173828,0.0047 c 0.23428,0.0063 0.908854,0.01897 1.513672,0.02838 0.832393,0.01294 3.553884,0.0229 7.77539,0.02846 l 4.021485,0.0053 v 1.444505 1.444505 l -0.837891,-0.0046 c -0.46084,-0.0025 -2.145703,-0.0081 -3.744141,-0.01246 -1.598437,-0.0043 -3.927539,-0.01122 -5.175781,-0.01533 -1.248242,-0.0041 -2.597363,-0.0075 -2.998047,-0.0076 l -0.728515,-1e-4 v 0.246094 0.246094 H 72 66.019531 Z"
     id="path494" />
  <path
     style="fill:#000000;stroke-width:0.0078125"
     d="m 75.003906,67.308594 v -1.3125 h -7.109375 c -7.104166,0 -7.109375,-1.2e-5 -7.109375,-0.01563 0,-0.01561 0.0052,-0.01563 7.140625,-0.01563 h 7.140625 v 1.328125 1.328125 h -0.03125 -0.03125 z"
     id="path496" />
  <path
     style="fill:#000000;stroke-width:0.0078125"
     d="m 77.990224,68.978516 -0.0019,-3.013672 0.775391,-4.7e-5 c 0.426465,-2.5e-5 1.912695,0.0038 3.302734,0.0084 1.390039,0.0047 3.351758,0.01112 4.359375,0.01436 1.477075,0.0048 0.837928,0.0062 -3.298818,0.0072 l -5.130849,0.0013 -0.002,2.998047 -0.002,2.998046 z"
     id="path498" />
  <path
     style="fill:#000000;stroke-width:0.0078125"
     d="m 78.263672,63.045008 c 0.02471,-0.0016 0.06514,-0.0016 0.08984,0 0.02471,0.0015 0.0045,0.0028 -0.04492,0.0028 -0.04941,0 -0.06963,-0.0013 -0.04492,-0.0028 z"
     id="path500" />
  <path
     style="fill:#000000;stroke-width:0.0078125"
     d="m 75.074219,68.761719 v -2.804688 h -5.742188 -5.742187 v -1.453125 -1.453125 h 5.742187 5.742188 v -3.078125 -3.078125 h -5.742188 -5.742187 v -0.292969 -0.292968 h 15.339843 15.339844 v 0.317546 0.317545 l -1.548828,-0.0053 c -0.851855,-0.0029 -2.686133,-0.0087 -4.076172,-0.01285 -4.354832,-0.01307 -7.446242,-0.0226 -9.083984,-0.02802 l -1.580078,-0.0052 v 3.080141 3.080141 l 1.330078,-0.0052 c 0.731543,-0.0029 3.609961,-0.01195 6.396484,-0.02018 2.786524,-0.0082 5.853028,-0.01736 6.814453,-0.02031 l 1.748047,-0.0053 v 1.502068 1.502067 l -1.107422,-0.0048 c -0.609082,-0.0026 -1.792968,-0.0067 -2.630859,-0.0091 -0.837891,-0.0024 -3.156445,-0.0093 -5.152344,-0.01537 -1.995898,-0.0061 -4.477051,-0.01352 -5.513672,-0.01647 l -1.884765,-0.0054 v 2.805888 2.805889 h -1.453125 -1.453125 z"
     id="path502" />
  <path
     style="fill:#000000;stroke-width:0.0078125"
     d="M 77.990224,60.022348 77.992167,57 l 0.002,3.001953 0.002,3.001953 5.958974,0.0011 5.958974,0.0011 -4.1875,0.01346 c -2.303125,0.0074 -4.986425,0.01607 -5.96289,0.01925 l -1.775391,0.0058 z"
     id="path504" />
  <path
     style="fill:#000000;stroke-width:0.00552427"
     d="m 100.8914,72.051695 -1.920812,-0.0014 -0.0026,-0.01795 c -0.0014,-0.0099 -0.01398,-1.300682 -0.02794,-2.86847 -0.01396,-1.567788 -0.02694,-2.929452 -0.02884,-3.02592 l -0.0035,-0.175395 h 4.351132 4.35113 v 0.01657 0.01657 h -4.30617 -4.306164 v 3.002442 3.002442 h 2.485914 2.48593 v 0.02762 0.02762 l -0.57867,-0.0014 c -0.31827,-7.55e-4 -1.44304,-0.002 -2.49949,-0.0028 z"
     id="path506" />
  <path
     style="fill:#000000;stroke-width:0.00552427"
     d="m 85.916236,72.025455 v -0.02486 h 5.04366 5.04366 v -2.992921 -2.99292 l 0.0221,0.0021 0.0221,0.0021 v 3.015672 3.015672 h -5.065757 -5.065757 z"
     id="path508" />
  <path
     style="fill:#000000;stroke-width:0.00552427"
     d="m 117.00131,79.579896 v -1.419737 h 0.0746 0.0746 v 1.419737 1.419738 h -0.0746 -0.0746 z"
     id="path510" />
  <path
     style="fill:#000000;stroke-width:0.00552427"
     d="m 104.87554,83.988269 c 0,-0.01103 0.005,-0.01105 4.40698,-0.01243 l 4.40699,-0.0014 v -1.458408 -1.458408 l -4.40699,-0.0014 -4.40698,-0.0014 v -0.02486 -0.02486 h 4.45807 4.45808 l 10e-4,1.371401 0.001,1.3714 h 3.05216 3.05216 l 0.001,-4.840643 10e-4,-4.840643 h 0.047 0.0469 v 4.96632 4.966321 h -7.55997 c -7.55549,0 -7.55996,-7e-6 -7.55996,-0.01104 z"
     id="path512" />
  <path
     style="fill:#000000;stroke-width:0.00552427"
     d="m 119.90156,72.660746 v -1.405927 h 0.0469 0.047 v 1.405927 1.405927 h -0.047 -0.0469 z"
     id="path514" />
  <path
     style="fill:#000000;stroke-width:0.0110485"
     d="m 117.14519,71.301775 c 0,-0.02735 0.002,-0.03853 0.005,-0.02486 0.003,0.01367 0.003,0.03605 0,0.04972 -0.003,0.01367 -0.005,0.0025 -0.005,-0.02486 z"
     id="path516" />
  <path
     style="fill:#000000;stroke-width:0.0110485"
     d="m 117.0096,71.301775 v -0.04419 h 0.0663 0.0663 v 0.04419 0.04419 h -0.0663 -0.0663 z"
     id="path518" />
  <path
     style="fill:#000000;stroke-width:0.0078125"
     d="m 96.003906,89.953145 v -0.04295 l 1.455078,-0.002 1.455078,-0.002 0.002,-2.966797 0.002,-2.966797 3.080068,0.0017 c 1.69403,9.39e-4 3.03348,0.0028 2.97655,0.0041 -0.0601,0.0014 -0.10352,0.0056 -0.10352,0.01001 0,0.0049 -1.04291,0.0076 -2.9375,0.0076 h -2.937493 v 3 3 H 97.5 96.003906 Z"
     id="path520" />
  <path
     style="fill:#000000;stroke-width:0.0078125"
     d="m 87.003906,90 v -2.996094 h 1.5 1.5 V 85.5 83.996094 h -3.546875 c -3.147569,0 -3.546875,-0.0013 -3.546875,-0.01172 0,-0.0104 0.402778,-0.01172 3.578125,-0.01172 h 3.578125 v 1.5625 1.5625 h -1.511719 -1.511718 v 2.914063 2.914062 h 4.476562 4.476563 v 0.03516 0.03516 H 91.5 87.003906 Z"
     id="path522" />
</svg>
